<svg xmlns="http://www.w3.org/2000/svg" width="813" height="716" viewBox="0 0 813 716">
  <g fill="none" fill-rule="evenodd" transform="translate(-1 -3)">
    <g transform="translate(184 24)">
      <g transform="translate(515)">
        <polygon fill="#FDD000" points="24.323 7.458 112.531 9.257 91.053 45.257 2.985 44.449" transform="rotate(8 57.758 26.358)"/>
        <polygon fill="#F5A623" points="87.189 49.348 87.189 61.348 1.189 47.348 1.189 36.348"/>
        <polygon fill="#FABE00" points="114.189 16.348 114.083 28.283 87.068 61.348 87.189 49.422"/>
        <text fill="#8B572A" font-family="OpenSans-BoldItalic, Open Sans" font-size="14" font-style="italic" font-weight="bold" letter-spacing="-.4" transform="rotate(12 56.8 27.374)">
          <tspan x="41.015" y="32.874">A015</tspan>
        </text>
      </g>
      <g transform="translate(486 37)">
        <polygon fill="#FDD000" points="24.323 7.458 112.531 9.257 91.053 45.257 2.985 44.449" transform="rotate(8 57.758 26.358)"/>
        <polygon fill="#F5A623" points="87.189 49.348 87.189 61.348 1.189 47.348 1.189 36.348"/>
        <polygon fill="#FABE00" points="114.189 16.348 114.083 28.283 87.068 61.348 87.189 49.422"/>
        <text fill="#8B572A" font-family="OpenSans-BoldItalic, Open Sans" font-size="14" font-style="italic" font-weight="bold" letter-spacing="-.4" transform="rotate(12 56.8 27.374)">
          <tspan x="41.015" y="32.874">A016</tspan>
        </text>
      </g>
      <g transform="translate(428 105)">
        <polygon fill="#FDD000" points="24.323 7.458 112.531 9.257 91.053 45.257 2.985 44.449" transform="rotate(8 57.758 26.358)"/>
        <polygon fill="#F5A623" points="87.189 49.348 87.189 61.348 1.189 47.348 1.189 36.348"/>
        <polygon fill="#FABE00" points="114.189 16.348 114.083 28.283 87.068 61.348 87.189 49.422"/>
        <text fill="#8B572A" font-family="OpenSans-BoldItalic, Open Sans" font-size="14" font-style="italic" font-weight="bold" letter-spacing="-.4" transform="rotate(12 56.8 27.374)">
          <tspan x="41.015" y="32.874">A017</tspan>
        </text>
      </g>
      <g transform="translate(400 141)">
        <polygon fill="#FDD000" points="24.323 7.458 112.531 9.257 91.053 45.257 2.985 44.449" transform="rotate(8 57.758 26.358)"/>
        <polygon fill="#F5A623" points="87.189 49.348 87.189 61.348 1.189 47.348 1.189 36.348"/>
        <polygon fill="#FABE00" points="114.189 16.348 114.083 28.283 87.068 61.348 87.189 49.422"/>
        <text fill="#8B572A" font-family="OpenSans-BoldItalic, Open Sans" font-size="14" font-style="italic" font-weight="bold" letter-spacing="-.4" transform="rotate(12 56.8 27.374)">
          <tspan x="41.015" y="32.874">A018</tspan>
        </text>
      </g>
      <g transform="translate(343 211)">
        <polygon fill="#FDD000" points="24.323 7.458 112.531 9.257 91.053 45.257 2.985 44.449" transform="rotate(8 57.758 26.358)"/>
        <polygon fill="#F5A623" points="87.189 49.348 87.189 61.348 1.189 47.348 1.189 36.348"/>
        <polygon fill="#FABE00" points="114.189 16.348 114.083 28.283 87.068 61.348 87.189 49.422"/>
        <text fill="#8B572A" font-family="OpenSans-BoldItalic, Open Sans" font-size="14" font-style="italic" font-weight="bold" letter-spacing="-.4" transform="rotate(12 56.8 27.374)">
          <tspan x="41.015" y="32.874">A019</tspan>
        </text>
      </g>
      <g transform="translate(315 247)">
        <polygon fill="#FDD000" points="24.323 7.458 112.531 9.257 91.053 45.257 2.985 44.449" transform="rotate(8 57.758 26.358)"/>
        <polygon fill="#F5A623" points="87.189 49.348 87.189 61.348 1.189 47.348 1.189 36.348"/>
        <polygon fill="#FABE00" points="114.189 16.348 114.083 28.283 87.068 61.348 87.189 49.422"/>
        <text fill="#8B572A" font-family="OpenSans-BoldItalic, Open Sans" font-size="14" font-style="italic" font-weight="bold" letter-spacing="-.4" transform="rotate(12 56.8 27.374)">
          <tspan x="41.015" y="32.874">A020</tspan>
        </text>
      </g>
      <g transform="translate(257 315)">
        <polygon fill="#FDD000" points="24.323 7.458 112.531 9.257 91.053 45.257 2.985 44.449" transform="rotate(8 57.758 26.358)"/>
        <polygon fill="#F5A623" points="87.189 49.348 87.189 61.348 1.189 47.348 1.189 36.348"/>
        <polygon fill="#FABE00" points="114.189 16.348 114.083 28.283 87.068 61.348 87.189 49.422"/>
        <text fill="#8B572A" font-family="OpenSans-BoldItalic, Open Sans" font-size="14" font-style="italic" font-weight="bold" letter-spacing="-.4" transform="rotate(12 56.8 27.374)">
          <tspan x="41.015" y="32.874">A021</tspan>
        </text>
      </g>
      <g transform="translate(228 351)">
        <polygon fill="#FDD000" points="24.323 7.458 112.531 9.257 91.053 45.257 2.985 44.449" transform="rotate(8 57.758 26.358)"/>
        <polygon fill="#F5A623" points="87.189 49.348 87.189 61.348 1.189 47.348 1.189 36.348"/>
        <polygon fill="#FABE00" points="114.189 16.348 114.083 28.283 87.068 61.348 87.189 49.422"/>
        <text fill="#8B572A" font-family="OpenSans-BoldItalic, Open Sans" font-size="14" font-style="italic" font-weight="bold" letter-spacing="-.4" transform="rotate(12 56.8 27.374)">
          <tspan x="41.015" y="32.874">A022</tspan>
        </text>
      </g>
      <g transform="translate(200 387)">
        <polygon fill="#FDD000" points="24.323 7.458 112.531 9.257 91.053 45.257 2.985 44.449" transform="rotate(8 57.758 26.358)"/>
        <polygon fill="#F5A623" points="87.189 49.348 87.189 61.348 1.189 47.348 1.189 36.348"/>
        <polygon fill="#FABE00" points="114.189 16.348 114.083 28.283 87.068 61.348 87.189 49.422"/>
        <text fill="#8B572A" font-family="OpenSans-BoldItalic, Open Sans" font-size="14" font-style="italic" font-weight="bold" letter-spacing="-.4" transform="rotate(12 56.8 27.374)">
          <tspan x="41.015" y="32.874">A023</tspan>
        </text>
      </g>
      <g transform="translate(138 455)">
        <polygon fill="#FDD000" points="24.323 7.458 112.531 9.257 91.053 45.257 2.985 44.449" transform="rotate(8 57.758 26.358)"/>
        <polygon fill="#F5A623" points="87.189 49.348 87.189 61.348 1.189 47.348 1.189 36.348"/>
        <polygon fill="#FABE00" points="114.189 16.348 114.083 28.283 87.068 61.348 87.189 49.422"/>
        <text fill="#8B572A" font-family="OpenSans-BoldItalic, Open Sans" font-size="14" font-style="italic" font-weight="bold" letter-spacing="-.4" transform="rotate(12 56.8 27.374)">
          <tspan x="41.015" y="32.874">A024</tspan>
        </text>
      </g>
      <g transform="translate(110 491)">
        <polygon fill="#FDD000" points="24.323 7.458 112.531 9.257 91.053 45.257 2.985 44.449" transform="rotate(8 57.758 26.358)"/>
        <polygon fill="#F5A623" points="87.189 49.348 87.189 61.348 1.189 47.348 1.189 36.348"/>
        <polygon fill="#FABE00" points="114.189 16.348 114.083 28.283 87.068 61.348 87.189 49.422"/>
        <text fill="#8B572A" font-family="OpenSans-BoldItalic, Open Sans" font-size="14" font-style="italic" font-weight="bold" letter-spacing="-.4" transform="rotate(12 56.8 27.374)">
          <tspan x="41.015" y="32.874">A025</tspan>
        </text>
      </g>
      <g transform="translate(56 561)">
        <polygon fill="#FDD000" points="24.323 7.458 112.531 9.257 91.053 45.257 2.985 44.449" transform="rotate(8 57.758 26.358)"/>
        <polygon fill="#F5A623" points="87.189 49.348 87.189 61.348 1.189 47.348 1.189 36.348"/>
        <polygon fill="#FABE00" points="114.189 16.348 114.083 28.283 87.068 61.348 87.189 49.422"/>
        <text fill="#8B572A" font-family="OpenSans-BoldItalic, Open Sans" font-size="14" font-style="italic" font-weight="bold" letter-spacing="-.4" transform="rotate(12 56.8 27.374)">
          <tspan x="41.015" y="32.874">A026</tspan>
        </text>
      </g>
      <g transform="translate(28 597)">
        <polygon fill="#FDD000" points="24.323 7.458 112.531 9.257 91.053 45.257 2.985 44.449" transform="rotate(8 57.758 26.358)"/>
        <polygon fill="#F5A623" points="87.189 49.348 87.189 61.348 1.189 47.348 1.189 36.348"/>
        <polygon fill="#FABE00" points="114.189 16.348 114.083 28.283 87.068 61.348 87.189 49.422"/>
        <text fill="#8B572A" font-family="OpenSans-BoldItalic, Open Sans" font-size="14" font-style="italic" font-weight="bold" letter-spacing="-.4" transform="rotate(12 56.8 27.374)">
          <tspan x="41.015" y="32.874">A027</tspan>
        </text>
      </g>
      <g transform="translate(0 633)">
        <polygon fill="#FDD000" points="24.323 7.458 112.531 9.257 91.053 45.257 2.985 44.449" transform="rotate(8 57.758 26.358)"/>
        <polygon fill="#F5A623" points="87.189 49.348 87.189 61.348 1.189 47.348 1.189 36.348"/>
        <polygon fill="#FABE00" points="114.189 16.348 114.083 28.283 87.068 61.348 87.189 49.422"/>
        <text fill="#8B572A" font-family="OpenSans-BoldItalic, Open Sans" font-size="14" font-style="italic" font-weight="bold" letter-spacing="-.4" transform="rotate(12 56.8 27.374)">
          <tspan x="41.015" y="32.874">A028</tspan>
        </text>
      </g>
    </g>
    <g transform="translate(515)">
      <polygon fill="#FDD000" points="24.323 7.458 112.531 9.257 91.053 45.257 2.985 44.449" transform="rotate(8 57.758 26.358)"/>
      <polygon fill="#F5A623" points="87.189 49.348 87.189 61.348 1.189 47.348 1.189 36.348"/>
      <polygon fill="#FABE00" points="114.189 16.348 114.083 28.283 87.068 61.348 87.189 49.422"/>
      <text fill="#8B572A" font-family="OpenSans-BoldItalic, Open Sans" font-size="14" font-style="italic" font-weight="bold" letter-spacing="-.4" transform="rotate(12 56.8 27.374)">
        <tspan x="41.015" y="32.874">A014</tspan>
      </text>
    </g>
    <g transform="translate(487 36)">
      <polygon fill="#FDD000" points="24.323 7.458 112.531 9.257 91.053 45.257 2.985 44.449" transform="rotate(8 57.758 26.358)"/>
      <polygon fill="#F5A623" points="87.189 49.348 87.189 61.348 1.189 47.348 1.189 36.348"/>
      <polygon fill="#FABE00" points="114.189 16.348 114.083 28.283 87.068 61.348 87.189 49.422"/>
      <text fill="#8B572A" font-family="OpenSans-BoldItalic, Open Sans" font-size="14" font-style="italic" font-weight="bold" letter-spacing="-.4" transform="rotate(12 56.8 27.374)">
        <tspan x="41.015" y="32.874">A013</tspan>
      </text>
    </g>
    <g transform="translate(428 105)">
      <polygon fill="#FDD000" points="24.323 7.458 112.531 9.257 91.053 45.257 2.985 44.449" transform="rotate(8 57.758 26.358)"/>
      <polygon fill="#F5A623" points="87.189 49.348 87.189 61.348 1.189 47.348 1.189 36.348"/>
      <polygon fill="#FABE00" points="114.189 16.348 114.083 28.283 87.068 61.348 87.189 49.422"/>
      <text fill="#8B572A" font-family="OpenSans-BoldItalic, Open Sans" font-size="14" font-style="italic" font-weight="bold" letter-spacing="-.4" transform="rotate(12 56.8 27.374)">
        <tspan x="41.015" y="32.874">A012</tspan>
      </text>
    </g>
    <g transform="translate(400 141)">
      <polygon fill="#FDD000" points="24.323 7.458 112.531 9.257 91.053 45.257 2.985 44.449" transform="rotate(8 57.758 26.358)"/>
      <polygon fill="#F5A623" points="87.189 49.348 87.189 61.348 1.189 47.348 1.189 36.348"/>
      <polygon fill="#FABE00" points="114.189 16.348 114.083 28.283 87.068 61.348 87.189 49.422"/>
      <text fill="#8B572A" font-family="OpenSans-BoldItalic, Open Sans" font-size="14" font-style="italic" font-weight="bold" letter-spacing="-.4" transform="rotate(12 56.8 27.374)">
        <tspan x="41.015" y="32.874">A011</tspan>
      </text>
    </g>
    <g transform="translate(343 211)">
      <polygon fill="#FDD000" points="24.323 7.458 112.531 9.257 91.053 45.257 2.985 44.449" transform="rotate(8 57.758 26.358)"/>
      <polygon fill="#F5A623" points="87.189 49.348 87.189 61.348 1.189 47.348 1.189 36.348"/>
      <polygon fill="#FABE00" points="114.189 16.348 114.083 28.283 87.068 61.348 87.189 49.422"/>
      <text fill="#8B572A" font-family="OpenSans-BoldItalic, Open Sans" font-size="14" font-style="italic" font-weight="bold" letter-spacing="-.4" transform="rotate(12 56.8 27.374)">
        <tspan x="41.015" y="32.874">A010</tspan>
      </text>
    </g>
    <g transform="translate(315 247)">
      <polygon fill="#FDD000" points="24.323 7.458 112.531 9.257 91.053 45.257 2.985 44.449" transform="rotate(8 57.758 26.358)"/>
      <polygon fill="#F5A623" points="87.189 49.348 87.189 61.348 1.189 47.348 1.189 36.348"/>
      <polygon fill="#FABE00" points="114.189 16.348 114.083 28.283 87.068 61.348 87.189 49.422"/>
      <text fill="#8B572A" font-family="OpenSans-BoldItalic, Open Sans" font-size="14" font-style="italic" font-weight="bold" letter-spacing="-.4" transform="rotate(12 56.8 27.374)">
        <tspan x="41.015" y="32.874">A009</tspan>
      </text>
    </g>
    <g transform="translate(257 315)">
      <polygon fill="#FDD000" points="24.323 7.458 112.531 9.257 91.053 45.257 2.985 44.449" transform="rotate(8 57.758 26.358)"/>
      <polygon fill="#F5A623" points="87.189 49.348 87.189 61.348 1.189 47.348 1.189 36.348"/>
      <polygon fill="#FABE00" points="114.189 16.348 114.083 28.283 87.068 61.348 87.189 49.422"/>
      <text fill="#8B572A" font-family="OpenSans-BoldItalic, Open Sans" font-size="14" font-style="italic" font-weight="bold" letter-spacing="-.4" transform="rotate(12 56.8 27.374)">
        <tspan x="41.015" y="32.874">A008</tspan>
      </text>
    </g>
    <g transform="translate(228 351)">
      <polygon fill="#FDD000" points="24.323 7.458 112.531 9.257 91.053 45.257 2.985 44.449" transform="rotate(8 57.758 26.358)"/>
      <polygon fill="#F5A623" points="87.189 49.348 87.189 61.348 1.189 47.348 1.189 36.348"/>
      <polygon fill="#FABE00" points="114.189 16.348 114.083 28.283 87.068 61.348 87.189 49.422"/>
      <text fill="#8B572A" font-family="OpenSans-BoldItalic, Open Sans" font-size="14" font-style="italic" font-weight="bold" letter-spacing="-.4" transform="rotate(12 56.8 27.374)">
        <tspan x="41.015" y="32.874">A007</tspan>
      </text>
    </g>
    <g transform="translate(200 387)">
      <polygon fill="#FDD000" points="24.323 7.458 112.531 9.257 91.053 45.257 2.985 44.449" transform="rotate(8 57.758 26.358)"/>
      <polygon fill="#F5A623" points="87.189 49.348 87.189 61.348 1.189 47.348 1.189 36.348"/>
      <polygon fill="#FABE00" points="114.189 16.348 114.083 28.283 87.068 61.348 87.189 49.422"/>
      <text fill="#8B572A" font-family="OpenSans-BoldItalic, Open Sans" font-size="14" font-style="italic" font-weight="bold" letter-spacing="-.4" transform="rotate(12 56.8 27.374)">
        <tspan x="41.015" y="32.874">A006</tspan>
      </text>
    </g>
    <g transform="translate(138 455)">
      <polygon fill="#FDD000" points="24.323 7.458 112.531 9.257 91.053 45.257 2.985 44.449" transform="rotate(8 57.758 26.358)"/>
      <polygon fill="#F5A623" points="87.189 49.348 87.189 61.348 1.189 47.348 1.189 36.348"/>
      <polygon fill="#FABE00" points="114.189 16.348 114.083 28.283 87.068 61.348 87.189 49.422"/>
      <text fill="#8B572A" font-family="OpenSans-BoldItalic, Open Sans" font-size="14" font-style="italic" font-weight="bold" letter-spacing="-.4" transform="rotate(12 56.8 27.374)">
        <tspan x="41.015" y="32.874">A005</tspan>
      </text>
    </g>
    <g transform="translate(110 491)">
      <polygon fill="#FDD000" points="24.323 7.458 112.531 9.257 91.053 45.257 2.985 44.449" transform="rotate(8 57.758 26.358)"/>
      <polygon fill="#F5A623" points="87.189 49.348 87.189 61.348 1.189 47.348 1.189 36.348"/>
      <polygon fill="#FABE00" points="114.189 16.348 114.083 28.283 87.068 61.348 87.189 49.422"/>
      <text fill="#8B572A" font-family="OpenSans-BoldItalic, Open Sans" font-size="14" font-style="italic" font-weight="bold" letter-spacing="-.4" transform="rotate(12 56.8 27.374)">
        <tspan x="41.015" y="32.874">A004</tspan>
      </text>
    </g>
    <g transform="translate(56 561)">
      <polygon fill="#FDD000" points="24.323 7.458 112.531 9.257 91.053 45.257 2.985 44.449" transform="rotate(8 57.758 26.358)"/>
      <polygon fill="#F5A623" points="87.189 49.348 87.189 61.348 1.189 47.348 1.189 36.348"/>
      <polygon fill="#FABE00" points="114.189 16.348 114.083 28.283 87.068 61.348 87.189 49.422"/>
      <text fill="#8B572A" font-family="OpenSans-BoldItalic, Open Sans" font-size="14" font-style="italic" font-weight="bold" letter-spacing="-.4" transform="rotate(12 56.8 27.374)">
        <tspan x="41.015" y="32.874">A003</tspan>
      </text>
    </g>
    <g transform="translate(28 597)">
      <polygon fill="#FDD000" points="24.323 7.458 112.531 9.257 91.053 45.257 2.985 44.449" transform="rotate(8 57.758 26.358)"/>
      <polygon fill="#F5A623" points="87.189 49.348 87.189 61.348 1.189 47.348 1.189 36.348"/>
      <polygon fill="#FABE00" points="114.189 16.348 114.083 28.283 87.068 61.348 87.189 49.422"/>
      <text fill="#8B572A" font-family="OpenSans-BoldItalic, Open Sans" font-size="14" font-style="italic" font-weight="bold" letter-spacing="-.4" transform="rotate(12 56.8 27.374)">
        <tspan x="41.015" y="32.874">A002</tspan>
      </text>
    </g>
    <g transform="translate(0 633)">
      <polygon fill="#FDD000" points="24.323 7.458 112.531 9.257 91.053 45.257 2.985 44.449" transform="rotate(8 57.758 26.358)"/>
      <polygon fill="#F5A623" points="87.189 49.348 87.189 61.348 1.189 47.348 1.189 36.348"/>
      <polygon fill="#FABE00" points="114.189 16.348 114.083 28.283 87.068 61.348 87.189 49.422"/>
      <text fill="#8B572A" font-family="OpenSans-BoldItalic, Open Sans" font-size="14" font-style="italic" font-weight="bold" letter-spacing="-.4" transform="rotate(12 56.8 27.374)">
        <tspan x="41.015" y="32.874">A001</tspan>
      </text>
    </g>
  </g>
</svg>
