<svg xmlns="http://www.w3.org/2000/svg" width="750" height="383" viewBox="0 0 750 383">
  <g fill="none" fill-rule="evenodd" transform="translate(-5 2)">
    <g transform="translate(230)">
      <polygon fill="#ECECEC" points="28.478 2 72 2 50.522 38 7 38" transform="rotate(8 39.5 20)"/>
      <polygon fill="#8C8C94" points="47 40 47 52 5 45 5 34"/>
      <polygon fill="#BCBCBC" points="74 7 73.894 18.935 46.88 52 47 40.074"/>
      <text fill="#8C8C94" font-family="OpenSans-BoldItalic, Open Sans" font-size="12" font-style="italic" font-weight="bold" letter-spacing="-.343" transform="rotate(13 37.5 22)">
        <tspan x="25.087" y="26">F463</tspan>
      </text>
    </g>
    <g transform="translate(202 35)">
      <polygon fill="#ECECEC" points="28.478 2 72 2 50.522 38 7 38" transform="rotate(8 39.5 20)"/>
      <polygon fill="#8C8C94" points="47 40 47 52 5 45 5 34"/>
      <polygon fill="#BCBCBC" points="74 7 73.894 18.935 46.88 52 47 40.074"/>
      <text fill="#8C8C94" font-family="OpenSans-BoldItalic, Open Sans" font-size="12" font-style="italic" font-weight="bold" letter-spacing="-.343" transform="rotate(13 37.5 22)">
        <tspan x="25.087" y="26">F461</tspan>
      </text>
    </g>
    <g transform="translate(173 70)">
      <polygon fill="#ECECEC" points="28.478 2 72 2 50.522 38 7 38" transform="rotate(8 39.5 20)"/>
      <polygon fill="#8C8C94" points="47 40 47 52 5 45 5 34"/>
      <polygon fill="#BCBCBC" points="74 7 73.894 18.935 46.88 52 47 40.074"/>
      <text fill="#8C8C94" font-family="OpenSans-BoldItalic, Open Sans" font-size="12" font-style="italic" font-weight="bold" letter-spacing="-.343" transform="rotate(13 37.5 22)">
        <tspan x="25.087" y="26">F459</tspan>
      </text>
    </g>
    <g transform="translate(144 105)">
      <polygon fill="#ECECEC" points="28.478 2 72 2 50.522 38 7 38" transform="rotate(8 39.5 20)"/>
      <polygon fill="#8C8C94" points="47 40 47 52 5 45 5 34"/>
      <polygon fill="#BCBCBC" points="74 7 73.894 18.935 46.88 52 47 40.074"/>
      <text fill="#8C8C94" font-family="OpenSans-BoldItalic, Open Sans" font-size="12" font-style="italic" font-weight="bold" letter-spacing="-.343" transform="rotate(13 37.5 22)">
        <tspan x="25.087" y="26">F457</tspan>
      </text>
    </g>
    <g transform="translate(115 140)">
      <polygon fill="#ECECEC" points="28.478 2 72 2 50.522 38 7 38" transform="rotate(8 39.5 20)"/>
      <polygon fill="#8C8C94" points="47 40 47 52 5 45 5 34"/>
      <polygon fill="#BCBCBC" points="74 7 73.894 18.935 46.88 52 47 40.074"/>
      <text fill="#8C8C94" font-family="OpenSans-BoldItalic, Open Sans" font-size="12" font-style="italic" font-weight="bold" letter-spacing="-.343" transform="rotate(13 37.5 22)">
        <tspan x="25.087" y="26">F455</tspan>
      </text>
    </g>
    <g transform="translate(87 175)">
      <polygon fill="#ECECEC" points="28.478 2 72 2 50.522 38 7 38" transform="rotate(8 39.5 20)"/>
      <polygon fill="#8C8C94" points="47 40 47 52 5 45 5 34"/>
      <polygon fill="#BCBCBC" points="74 7 73.894 18.935 46.88 52 47 40.074"/>
      <text fill="#8C8C94" font-family="OpenSans-BoldItalic, Open Sans" font-size="12" font-style="italic" font-weight="bold" letter-spacing="-.343" transform="rotate(13 37.5 22)">
        <tspan x="25.087" y="26">F453</tspan>
      </text>
    </g>
    <g transform="translate(29 245)">
      <polygon fill="#ECECEC" points="28.478 2 72 2 50.522 38 7 38" transform="rotate(8 39.5 20)"/>
      <polygon fill="#8C8C94" points="47 40 47 52 5 45 5 34"/>
      <polygon fill="#BCBCBC" points="74 7 73.894 18.935 46.88 52 47 40.074"/>
      <text fill="#8C8C94" font-family="OpenSans-BoldItalic, Open Sans" font-size="12" font-style="italic" font-weight="bold" letter-spacing="-.343" transform="rotate(13 37.5 22)">
        <tspan x="25.087" y="26">F449</tspan>
      </text>
    </g>
    <g transform="translate(0 280)">
      <polygon fill="#1456A0" points="28.667 2.348 72.189 2.348 50.711 38.348 7.189 38.348" transform="rotate(8 39.689 20.348)"/>
      <polygon fill="#0B3F70" points="47.189 39.348 47.189 51.348 5.189 44.348 5.189 33.348"/>
      <polygon fill="#0B3F70" points="74.189 6.348 74.083 18.283 47.068 51.348 47.189 39.422"/>
      <text fill="#FFF" font-family="OpenSans-BoldItalic, Open Sans" font-size="12" font-style="italic" font-weight="bold" letter-spacing="-.343" transform="rotate(13 37.332 22.14)">
        <tspan x="24.919" y="26.139">F447</tspan>
      </text>
    </g>
    <g transform="translate(45 7)">
      <g transform="translate(230)">
        <polygon fill="#ECECEC" points="28.478 2 72 2 50.522 38 7 38" transform="rotate(8 39.5 20)"/>
        <polygon fill="#8C8C94" points="47 40 47 52 5 45 5 34"/>
        <polygon fill="#BCBCBC" points="74 7 73.894 18.935 46.88 52 47 40.074"/>
        <text fill="#8C8C94" font-family="OpenSans-BoldItalic, Open Sans" font-size="12" font-style="italic" font-weight="bold" letter-spacing="-.343" transform="rotate(13 37.5 22)">
          <tspan x="25.087" y="26">F562</tspan>
        </text>
      </g>
      <g transform="translate(202 35)">
        <polygon fill="#ECECEC" points="28.478 2 72 2 50.522 38 7 38" transform="rotate(8 39.5 20)"/>
        <polygon fill="#8C8C94" points="47 40 47 52 5 45 5 34"/>
        <polygon fill="#BCBCBC" points="74 7 73.894 18.935 46.88 52 47 40.074"/>
        <text fill="#8C8C94" font-family="OpenSans-BoldItalic, Open Sans" font-size="12" font-style="italic" font-weight="bold" letter-spacing="-.343" transform="rotate(13 37.5 22)">
          <tspan x="25.087" y="26">F560</tspan>
        </text>
      </g>
      <g transform="translate(173 70)">
        <polygon fill="#ECECEC" points="28.478 2 72 2 50.522 38 7 38" transform="rotate(8 39.5 20)"/>
        <polygon fill="#8C8C94" points="47 40 47 52 5 45 5 34"/>
        <polygon fill="#BCBCBC" points="74 7 73.894 18.935 46.88 52 47 40.074"/>
        <text fill="#8C8C94" font-family="OpenSans-BoldItalic, Open Sans" font-size="12" font-style="italic" font-weight="bold" letter-spacing="-.343" transform="rotate(13 37.5 22)">
          <tspan x="25.087" y="26">F558</tspan>
        </text>
      </g>
      <g transform="translate(144 105)">
        <polygon fill="#ECECEC" points="28.478 2 72 2 50.522 38 7 38" transform="rotate(8 39.5 20)"/>
        <polygon fill="#8C8C94" points="47 40 47 52 5 45 5 34"/>
        <polygon fill="#BCBCBC" points="74 7 73.894 18.935 46.88 52 47 40.074"/>
        <text fill="#8C8C94" font-family="OpenSans-BoldItalic, Open Sans" font-size="12" font-style="italic" font-weight="bold" letter-spacing="-.343" transform="rotate(13 37.5 22)">
          <tspan x="25.087" y="26">F556</tspan>
        </text>
      </g>
      <g transform="translate(115 140)">
        <polygon fill="#ECECEC" points="28.478 2 72 2 50.522 38 7 38" transform="rotate(8 39.5 20)"/>
        <polygon fill="#8C8C94" points="47 40 47 52 5 45 5 34"/>
        <polygon fill="#BCBCBC" points="74 7 73.894 18.935 46.88 52 47 40.074"/>
        <text fill="#8C8C94" font-family="OpenSans-BoldItalic, Open Sans" font-size="12" font-style="italic" font-weight="bold" letter-spacing="-.343" transform="rotate(13 37.5 22)">
          <tspan x="25.087" y="26">F554</tspan>
        </text>
      </g>
      <g transform="translate(87 175)">
        <polygon fill="#ECECEC" points="28.478 2 72 2 50.522 38 7 38" transform="rotate(8 39.5 20)"/>
        <polygon fill="#8C8C94" points="47 40 47 52 5 45 5 34"/>
        <polygon fill="#BCBCBC" points="74 7 73.894 18.935 46.88 52 47 40.074"/>
        <text fill="#8C8C94" font-family="OpenSans-BoldItalic, Open Sans" font-size="12" font-style="italic" font-weight="bold" letter-spacing="-.343" transform="rotate(13 37.5 22)">
          <tspan x="25.087" y="26">F552</tspan>
        </text>
      </g>
      <g transform="translate(29 245)">
        <polygon fill="#ECECEC" points="28.478 2 72 2 50.522 38 7 38" transform="rotate(8 39.5 20)"/>
        <polygon fill="#8C8C94" points="47 40 47 52 5 45 5 34"/>
        <polygon fill="#BCBCBC" points="74 7 73.894 18.935 46.88 52 47 40.074"/>
        <text fill="#8C8C94" font-family="OpenSans-BoldItalic, Open Sans" font-size="12" font-style="italic" font-weight="bold" letter-spacing="-.343" transform="rotate(13 37.5 22)">
          <tspan x="25.087" y="26">F548</tspan>
        </text>
      </g>
      <g transform="translate(0 280)">
        <polygon fill="#1456A0" points="28.667 2.348 72.189 2.348 50.711 38.348 7.189 38.348" transform="rotate(8 39.689 20.348)"/>
        <polygon fill="#0B3F70" points="47.189 39.348 47.189 51.348 5.189 44.348 5.189 33.348"/>
        <polygon fill="#0B3F70" points="74.189 6.348 74.083 18.283 47.068 51.348 47.189 39.422"/>
        <text fill="#FFF" font-family="OpenSans-BoldItalic, Open Sans" font-size="12" font-style="italic" font-weight="bold" letter-spacing="-.343" transform="rotate(13 37.332 22.14)">
          <tspan x="24.919" y="26.139">F546</tspan>
        </text>
      </g>
    </g>
    <g transform="translate(135 21)">
      <g transform="translate(230)">
        <polygon fill="#ECECEC" points="28.478 2 72 2 50.522 38 7 38" transform="rotate(8 39.5 20)"/>
        <polygon fill="#8C8C94" points="47 40 47 52 5 45 5 34"/>
        <polygon fill="#BCBCBC" points="74 7 73.894 18.935 46.88 52 47 40.074"/>
        <text fill="#8C8C94" font-family="OpenSans-BoldItalic, Open Sans" font-size="12" font-style="italic" font-weight="bold" letter-spacing="-.343" transform="rotate(13 37.5 22)">
          <tspan x="25.087" y="26">F563</tspan>
        </text>
      </g>
      <g transform="translate(202 35)">
        <polygon fill="#ECECEC" points="28.478 2 72 2 50.522 38 7 38" transform="rotate(8 39.5 20)"/>
        <polygon fill="#8C8C94" points="47 40 47 52 5 45 5 34"/>
        <polygon fill="#BCBCBC" points="74 7 73.894 18.935 46.88 52 47 40.074"/>
        <text fill="#8C8C94" font-family="OpenSans-BoldItalic, Open Sans" font-size="12" font-style="italic" font-weight="bold" letter-spacing="-.343" transform="rotate(13 37.5 22)">
          <tspan x="25.087" y="26">F561</tspan>
        </text>
      </g>
      <g transform="translate(144 105)">
        <polygon fill="#ECECEC" points="28.478 2 72 2 50.522 38 7 38" transform="rotate(8 39.5 20)"/>
        <polygon fill="#8C8C94" points="47 40 47 52 5 45 5 34"/>
        <polygon fill="#BCBCBC" points="74 7 73.894 18.935 46.88 52 47 40.074"/>
        <text fill="#8C8C94" font-family="OpenSans-BoldItalic, Open Sans" font-size="12" font-style="italic" font-weight="bold" letter-spacing="-.343" transform="rotate(13 37.5 22)">
          <tspan x="25.087" y="26">F557</tspan>
        </text>
      </g>
      <g transform="translate(115 140)">
        <polygon fill="#ECECEC" points="28.478 2 72 2 50.522 38 7 38" transform="rotate(8 39.5 20)"/>
        <polygon fill="#8C8C94" points="47 40 47 52 5 45 5 34"/>
        <polygon fill="#BCBCBC" points="74 7 73.894 18.935 46.88 52 47 40.074"/>
        <text fill="#8C8C94" font-family="OpenSans-BoldItalic, Open Sans" font-size="12" font-style="italic" font-weight="bold" letter-spacing="-.343" transform="rotate(13 37.5 22)">
          <tspan x="25.087" y="26">F555</tspan>
        </text>
      </g>
      <g transform="translate(87 175)">
        <polygon fill="#ECECEC" points="28.478 2 72 2 50.522 38 7 38" transform="rotate(8 39.5 20)"/>
        <polygon fill="#8C8C94" points="47 40 47 52 5 45 5 34"/>
        <polygon fill="#BCBCBC" points="74 7 73.894 18.935 46.88 52 47 40.074"/>
        <text fill="#8C8C94" font-family="OpenSans-BoldItalic, Open Sans" font-size="12" font-style="italic" font-weight="bold" letter-spacing="-.343" transform="rotate(13 37.5 22)">
          <tspan x="25.02" y="26">E553</tspan>
        </text>
      </g>
      <g transform="translate(29 245)">
        <polygon fill="#ECECEC" points="28.478 2 72 2 50.522 38 7 38" transform="rotate(8 39.5 20)"/>
        <polygon fill="#8C8C94" points="47 40 47 52 5 45 5 34"/>
        <polygon fill="#BCBCBC" points="74 7 73.894 18.935 46.88 52 47 40.074"/>
        <text fill="#8C8C94" font-family="OpenSans-BoldItalic, Open Sans" font-size="12" font-style="italic" font-weight="bold" letter-spacing="-.343" transform="rotate(13 37.5 22)">
          <tspan x="25.087" y="26">F549</tspan>
        </text>
      </g>
      <g transform="translate(0 280)">
        <polygon fill="#1456A0" points="28.667 2.348 72.189 2.348 50.711 38.348 7.189 38.348" transform="rotate(8 39.689 20.348)"/>
        <polygon fill="#0B3F70" points="47.189 39.348 47.189 51.348 5.189 44.348 5.189 33.348"/>
        <polygon fill="#0B3F70" points="74.189 6.348 74.083 18.283 47.068 51.348 47.189 39.422"/>
        <text fill="#FFF" font-family="OpenSans-BoldItalic, Open Sans" font-size="12" font-style="italic" font-weight="bold" letter-spacing="-.343" transform="rotate(13 37.332 22.14)">
          <tspan x="24.919" y="26.139">F547</tspan>
        </text>
      </g>
    </g>
    <g transform="translate(180 28)">
      <g transform="translate(230)">
        <polygon fill="#ECECEC" points="28.478 2 72 2 50.522 38 7 38" transform="rotate(8 39.5 20)"/>
        <polygon fill="#8C8C94" points="47 40 47 52 5 45 5 34"/>
        <polygon fill="#BCBCBC" points="74 7 73.894 18.935 46.88 52 47 40.074"/>
        <text fill="#8C8C94" font-family="OpenSans-BoldItalic, Open Sans" font-size="12" font-style="italic" font-weight="bold" letter-spacing="-.343" transform="rotate(13 37.5 22)">
          <tspan x="25.087" y="26">F662</tspan>
        </text>
      </g>
      <g transform="translate(202 35)">
        <polygon fill="#ECECEC" points="28.478 2 72 2 50.522 38 7 38" transform="rotate(8 39.5 20)"/>
        <polygon fill="#8C8C94" points="47 40 47 52 5 45 5 34"/>
        <polygon fill="#BCBCBC" points="74 7 73.894 18.935 46.88 52 47 40.074"/>
        <text fill="#8C8C94" font-family="OpenSans-BoldItalic, Open Sans" font-size="12" font-style="italic" font-weight="bold" letter-spacing="-.343" transform="rotate(13 37.5 22)">
          <tspan x="25.087" y="26">F660</tspan>
        </text>
      </g>
      <g transform="translate(144 105)">
        <polygon fill="#ECECEC" points="28.478 2 72 2 50.522 38 7 38" transform="rotate(8 39.5 20)"/>
        <polygon fill="#8C8C94" points="47 40 47 52 5 45 5 34"/>
        <polygon fill="#BCBCBC" points="74 7 73.894 18.935 46.88 52 47 40.074"/>
        <text fill="#8C8C94" font-family="OpenSans-BoldItalic, Open Sans" font-size="12" font-style="italic" font-weight="bold" letter-spacing="-.343" transform="rotate(13 37.5 22)">
          <tspan x="25.087" y="26">F656</tspan>
        </text>
      </g>
      <g transform="translate(115 140)">
        <polygon fill="#ECECEC" points="28.478 2 72 2 50.522 38 7 38" transform="rotate(8 39.5 20)"/>
        <polygon fill="#8C8C94" points="47 40 47 52 5 45 5 34"/>
        <polygon fill="#BCBCBC" points="74 7 73.894 18.935 46.88 52 47 40.074"/>
        <text fill="#8C8C94" font-family="OpenSans-BoldItalic, Open Sans" font-size="12" font-style="italic" font-weight="bold" letter-spacing="-.343" transform="rotate(13 37.5 22)">
          <tspan x="25.087" y="26">F654</tspan>
        </text>
      </g>
      <g transform="translate(87 175)">
        <polygon fill="#ECECEC" points="28.478 2 72 2 50.522 38 7 38" transform="rotate(8 39.5 20)"/>
        <polygon fill="#8C8C94" points="47 40 47 52 5 45 5 34"/>
        <polygon fill="#BCBCBC" points="74 7 73.894 18.935 46.88 52 47 40.074"/>
        <text fill="#8C8C94" font-family="OpenSans-BoldItalic, Open Sans" font-size="12" font-style="italic" font-weight="bold" letter-spacing="-.343" transform="rotate(13 37.5 22)">
          <tspan x="25.087" y="26">F652</tspan>
        </text>
      </g>
      <g transform="translate(29 245)">
        <polygon fill="#ECECEC" points="28.478 2 72 2 50.522 38 7 38" transform="rotate(8 39.5 20)"/>
        <polygon fill="#8C8C94" points="47 40 47 52 5 45 5 34"/>
        <polygon fill="#BCBCBC" points="74 7 73.894 18.935 46.88 52 47 40.074"/>
        <text fill="#8C8C94" font-family="OpenSans-BoldItalic, Open Sans" font-size="12" font-style="italic" font-weight="bold" letter-spacing="-.343" transform="rotate(13 37.5 22)">
          <tspan x="25.087" y="26">F648</tspan>
        </text>
      </g>
      <g transform="translate(0 280)">
        <polygon fill="#1456A0" points="28.667 2.348 72.189 2.348 50.711 38.348 7.189 38.348" transform="rotate(8 39.689 20.348)"/>
        <polygon fill="#0B3F70" points="47.189 39.348 47.189 51.348 5.189 44.348 5.189 33.348"/>
        <polygon fill="#0B3F70" points="74.189 6.348 74.083 18.283 47.068 51.348 47.189 39.422"/>
        <text fill="#FFF" font-family="OpenSans-BoldItalic, Open Sans" font-size="12" font-style="italic" font-weight="bold" letter-spacing="-.343" transform="rotate(13 37.332 22.14)">
          <tspan x="24.919" y="26.139">F646</tspan>
        </text>
      </g>
    </g>
    <g transform="translate(270 42)">
      <g transform="translate(230)">
        <polygon fill="#ECECEC" points="28.478 2 72 2 50.522 38 7 38" transform="rotate(8 39.5 20)"/>
        <polygon fill="#8C8C94" points="47 40 47 52 5 45 5 34"/>
        <polygon fill="#BCBCBC" points="74 7 73.894 18.935 46.88 52 47 40.074"/>
        <text fill="#8C8C94" font-family="OpenSans-BoldItalic, Open Sans" font-size="12" font-style="italic" font-weight="bold" letter-spacing="-.343" transform="rotate(13 37.5 22)">
          <tspan x="25.087" y="26">F663</tspan>
        </text>
      </g>
      <g transform="translate(202 35)">
        <polygon fill="#ECECEC" points="28.478 2 72 2 50.522 38 7 38" transform="rotate(8 39.5 20)"/>
        <polygon fill="#8C8C94" points="47 40 47 52 5 45 5 34"/>
        <polygon fill="#BCBCBC" points="74 7 73.894 18.935 46.88 52 47 40.074"/>
        <text fill="#8C8C94" font-family="OpenSans-BoldItalic, Open Sans" font-size="12" font-style="italic" font-weight="bold" letter-spacing="-.343" transform="rotate(13 37.5 22)">
          <tspan x="25.087" y="26">F661</tspan>
        </text>
      </g>
      <g transform="translate(173 70)">
        <polygon fill="#ECECEC" points="28.478 2 72 2 50.522 38 7 38" transform="rotate(8 39.5 20)"/>
        <polygon fill="#8C8C94" points="47 40 47 52 5 45 5 34"/>
        <polygon fill="#BCBCBC" points="74 7 73.894 18.935 46.88 52 47 40.074"/>
        <text fill="#8C8C94" font-family="OpenSans-BoldItalic, Open Sans" font-size="12" font-style="italic" font-weight="bold" letter-spacing="-.343" transform="rotate(13 37.5 22)">
          <tspan x="25.087" y="26">F659</tspan>
        </text>
      </g>
      <g transform="translate(144 105)">
        <polygon fill="#ECECEC" points="28.478 2 72 2 50.522 38 7 38" transform="rotate(8 39.5 20)"/>
        <polygon fill="#8C8C94" points="47 40 47 52 5 45 5 34"/>
        <polygon fill="#BCBCBC" points="74 7 73.894 18.935 46.88 52 47 40.074"/>
        <text fill="#8C8C94" font-family="OpenSans-BoldItalic, Open Sans" font-size="12" font-style="italic" font-weight="bold" letter-spacing="-.343" transform="rotate(13 37.5 22)">
          <tspan x="25.087" y="26">F657</tspan>
        </text>
      </g>
      <g transform="translate(115 140)">
        <polygon fill="#ECECEC" points="28.478 2 72 2 50.522 38 7 38" transform="rotate(8 39.5 20)"/>
        <polygon fill="#8C8C94" points="47 40 47 52 5 45 5 34"/>
        <polygon fill="#BCBCBC" points="74 7 73.894 18.935 46.88 52 47 40.074"/>
        <text fill="#8C8C94" font-family="OpenSans-BoldItalic, Open Sans" font-size="12" font-style="italic" font-weight="bold" letter-spacing="-.343" transform="rotate(13 37.5 22)">
          <tspan x="25.087" y="26">F655</tspan>
        </text>
      </g>
      <g transform="translate(87 175)">
        <polygon fill="#ECECEC" points="28.478 2 72 2 50.522 38 7 38" transform="rotate(8 39.5 20)"/>
        <polygon fill="#8C8C94" points="47 40 47 52 5 45 5 34"/>
        <polygon fill="#BCBCBC" points="74 7 73.894 18.935 46.88 52 47 40.074"/>
        <text fill="#8C8C94" font-family="OpenSans-BoldItalic, Open Sans" font-size="12" font-style="italic" font-weight="bold" letter-spacing="-.343" transform="rotate(13 37.5 22)">
          <tspan x="25.087" y="26">F653</tspan>
        </text>
      </g>
      <g transform="translate(29 245)">
        <polygon fill="#ECECEC" points="28.478 2 72 2 50.522 38 7 38" transform="rotate(8 39.5 20)"/>
        <polygon fill="#8C8C94" points="47 40 47 52 5 45 5 34"/>
        <polygon fill="#BCBCBC" points="74 7 73.894 18.935 46.88 52 47 40.074"/>
        <text fill="#8C8C94" font-family="OpenSans-BoldItalic, Open Sans" font-size="12" font-style="italic" font-weight="bold" letter-spacing="-.343" transform="rotate(13 37.5 22)">
          <tspan x="25.087" y="26">F649</tspan>
        </text>
      </g>
      <g transform="translate(0 280)">
        <polygon fill="#1456A0" points="28.667 2.348 72.189 2.348 50.711 38.348 7.189 38.348" transform="rotate(8 39.689 20.348)"/>
        <polygon fill="#0B3F70" points="47.189 39.348 47.189 51.348 5.189 44.348 5.189 33.348"/>
        <polygon fill="#0B3F70" points="74.189 6.348 74.083 18.283 47.068 51.348 47.189 39.422"/>
        <text fill="#FFF" font-family="OpenSans-BoldItalic, Open Sans" font-size="12" font-style="italic" font-weight="bold" letter-spacing="-.343" transform="rotate(13 37.332 22.14)">
          <tspan x="24.919" y="26.139">F647</tspan>
        </text>
      </g>
    </g>
    <g transform="translate(315 49)">
      <g transform="translate(230)">
        <polygon fill="#ECECEC" points="28.478 2 72 2 50.522 38 7 38" transform="rotate(8 39.5 20)"/>
        <polygon fill="#8C8C94" points="47 40 47 52 5 45 5 34"/>
        <polygon fill="#BCBCBC" points="74 7 73.894 18.935 46.88 52 47 40.074"/>
        <text fill="#8C8C94" font-family="OpenSans-BoldItalic, Open Sans" font-size="12" font-style="italic" font-weight="bold" letter-spacing="-.343" transform="rotate(13 37.5 22)">
          <tspan x="25.087" y="26">F762</tspan>
        </text>
      </g>
      <g transform="translate(202 35)">
        <polygon fill="#ECECEC" points="28.478 2 72 2 50.522 38 7 38" transform="rotate(8 39.5 20)"/>
        <polygon fill="#8C8C94" points="47 40 47 52 5 45 5 34"/>
        <polygon fill="#BCBCBC" points="74 7 73.894 18.935 46.88 52 47 40.074"/>
        <text fill="#8C8C94" font-family="OpenSans-BoldItalic, Open Sans" font-size="12" font-style="italic" font-weight="bold" letter-spacing="-.343" transform="rotate(13 37.5 22)">
          <tspan x="25.087" y="26">F760</tspan>
        </text>
      </g>
      <g transform="translate(173 70)">
        <polygon fill="#ECECEC" points="28.478 2 72 2 50.522 38 7 38" transform="rotate(8 39.5 20)"/>
        <polygon fill="#8C8C94" points="47 40 47 52 5 45 5 34"/>
        <polygon fill="#BCBCBC" points="74 7 73.894 18.935 46.88 52 47 40.074"/>
        <text fill="#8C8C94" font-family="OpenSans-BoldItalic, Open Sans" font-size="12" font-style="italic" font-weight="bold" letter-spacing="-.343" transform="rotate(13 37.5 22)">
          <tspan x="25.087" y="26">F758</tspan>
        </text>
      </g>
      <g transform="translate(144 105)">
        <polygon fill="#ECECEC" points="28.478 2 72 2 50.522 38 7 38" transform="rotate(8 39.5 20)"/>
        <polygon fill="#8C8C94" points="47 40 47 52 5 45 5 34"/>
        <polygon fill="#BCBCBC" points="74 7 73.894 18.935 46.88 52 47 40.074"/>
        <text fill="#8C8C94" font-family="OpenSans-BoldItalic, Open Sans" font-size="12" font-style="italic" font-weight="bold" letter-spacing="-.343" transform="rotate(13 37.5 22)">
          <tspan x="25.087" y="26">F756</tspan>
        </text>
      </g>
      <g transform="translate(115 140)">
        <polygon fill="#ECECEC" points="28.478 2 72 2 50.522 38 7 38" transform="rotate(8 39.5 20)"/>
        <polygon fill="#8C8C94" points="47 40 47 52 5 45 5 34"/>
        <polygon fill="#BCBCBC" points="74 7 73.894 18.935 46.88 52 47 40.074"/>
        <text fill="#8C8C94" font-family="OpenSans-BoldItalic, Open Sans" font-size="12" font-style="italic" font-weight="bold" letter-spacing="-.343" transform="rotate(13 37.5 22)">
          <tspan x="25.087" y="26">F754</tspan>
        </text>
      </g>
      <g transform="translate(87 175)">
        <polygon fill="#ECECEC" points="28.478 2 72 2 50.522 38 7 38" transform="rotate(8 39.5 20)"/>
        <polygon fill="#8C8C94" points="47 40 47 52 5 45 5 34"/>
        <polygon fill="#BCBCBC" points="74 7 73.894 18.935 46.88 52 47 40.074"/>
        <text fill="#8C8C94" font-family="OpenSans-BoldItalic, Open Sans" font-size="12" font-style="italic" font-weight="bold" letter-spacing="-.343" transform="rotate(13 37.5 22)">
          <tspan x="25.087" y="26">F752</tspan>
        </text>
      </g>
      <g transform="translate(29 245)">
        <polygon fill="#ECECEC" points="28.478 2 72 2 50.522 38 7 38" transform="rotate(8 39.5 20)"/>
        <polygon fill="#8C8C94" points="47 40 47 52 5 45 5 34"/>
        <polygon fill="#BCBCBC" points="74 7 73.894 18.935 46.88 52 47 40.074"/>
        <text fill="#8C8C94" font-family="OpenSans-BoldItalic, Open Sans" font-size="12" font-style="italic" font-weight="bold" letter-spacing="-.343" transform="rotate(13 37.5 22)">
          <tspan x="25.087" y="26">F748</tspan>
        </text>
      </g>
      <g transform="translate(0 280)">
        <polygon fill="#1456A0" points="28.667 2.348 72.189 2.348 50.711 38.348 7.189 38.348" transform="rotate(8 39.689 20.348)"/>
        <polygon fill="#0B3F70" points="47.189 39.348 47.189 51.348 5.189 44.348 5.189 33.348"/>
        <polygon fill="#0B3F70" points="74.189 6.348 74.083 18.283 47.068 51.348 47.189 39.422"/>
        <text fill="#FFF" font-family="OpenSans-BoldItalic, Open Sans" font-size="12" font-style="italic" font-weight="bold" letter-spacing="-.343" transform="rotate(13 37.332 22.14)">
          <tspan x="24.919" y="26.139">F746</tspan>
        </text>
      </g>
    </g>
    <g transform="translate(464 62)">
      <g transform="translate(172)">
        <polygon fill="#ECECEC" points="28.478 2 72 2 50.522 38 7 38" transform="rotate(8 39.5 20)"/>
        <polygon fill="#8C8C94" points="47 40 47 52 5 45 5 34"/>
        <polygon fill="#BCBCBC" points="74 7 73.894 18.935 46.88 52 47 40.074"/>
        <text fill="#8C8C94" font-family="OpenSans-BoldItalic, Open Sans" font-size="12" font-style="italic" font-weight="bold" letter-spacing="-.343" transform="rotate(13 37.5 22)">
          <tspan x="25.087" y="26">F763</tspan>
        </text>
      </g>
      <g transform="translate(144 35)">
        <polygon fill="#ECECEC" points="28.478 2 72 2 50.522 38 7 38" transform="rotate(8 39.5 20)"/>
        <polygon fill="#8C8C94" points="47 40 47 52 5 45 5 34"/>
        <polygon fill="#BCBCBC" points="74 7 73.894 18.935 46.88 52 47 40.074"/>
        <text fill="#8C8C94" font-family="OpenSans-BoldItalic, Open Sans" font-size="12" font-style="italic" font-weight="bold" letter-spacing="-.343" transform="rotate(13 37.5 22)">
          <tspan x="25.087" y="26">F761</tspan>
        </text>
      </g>
      <g transform="translate(86 105)">
        <polygon fill="#ECECEC" points="28.478 2 72 2 50.522 38 7 38" transform="rotate(8 39.5 20)"/>
        <polygon fill="#8C8C94" points="47 40 47 52 5 45 5 34"/>
        <polygon fill="#BCBCBC" points="74 7 73.894 18.935 46.88 52 47 40.074"/>
        <text fill="#8C8C94" font-family="OpenSans-BoldItalic, Open Sans" font-size="12" font-style="italic" font-weight="bold" letter-spacing="-.343" transform="rotate(13 37.5 22)">
          <tspan x="25.087" y="26">F757</tspan>
        </text>
      </g>
      <g transform="translate(57 140)">
        <polygon fill="#ECECEC" points="28.478 2 72 2 50.522 38 7 38" transform="rotate(8 39.5 20)"/>
        <polygon fill="#8C8C94" points="47 40 47 52 5 45 5 34"/>
        <polygon fill="#BCBCBC" points="74 7 73.894 18.935 46.88 52 47 40.074"/>
        <text fill="#8C8C94" font-family="OpenSans-BoldItalic, Open Sans" font-size="12" font-style="italic" font-weight="bold" letter-spacing="-.343" transform="rotate(13 37.5 22)">
          <tspan x="25.087" y="26">F755</tspan>
        </text>
      </g>
      <g transform="translate(29 175)">
        <polygon fill="#ECECEC" points="28.478 2 72 2 50.522 38 7 38" transform="rotate(8 39.5 20)"/>
        <polygon fill="#8C8C94" points="47 40 47 52 5 45 5 34"/>
        <polygon fill="#BCBCBC" points="74 7 73.894 18.935 46.88 52 47 40.074"/>
        <text fill="#8C8C94" font-family="OpenSans-BoldItalic, Open Sans" font-size="12" font-style="italic" font-weight="bold" letter-spacing="-.343" transform="rotate(13 37.5 22)">
          <tspan x="25.087" y="26">F753</tspan>
        </text>
      </g>
      <g transform="translate(0 210)">
        <polygon fill="#ECECEC" points="28.478 2 72 2 50.522 38 7 38" transform="rotate(8 39.5 20)"/>
        <polygon fill="#8C8C94" points="47 40 47 52 5 45 5 34"/>
        <polygon fill="#BCBCBC" points="74 7 73.894 18.935 46.88 52 47 40.074"/>
        <text fill="#8C8C94" font-family="OpenSans-BoldItalic, Open Sans" font-size="12" font-style="italic" font-weight="bold" letter-spacing="-.343" transform="rotate(13 37.5 22)">
          <tspan x="25.087" y="26">F751</tspan>
        </text>
      </g>
    </g>
    <g transform="translate(508 69)">
      <g transform="translate(172)">
        <polygon fill="#1456A0" points="28.667 2.348 72.189 2.348 50.711 38.348 7.189 38.348" transform="rotate(8 39.689 20.348)"/>
        <polygon fill="#0B3F70" points="47.189 39.348 47.189 51.348 5.189 44.348 5.189 33.348"/>
        <polygon fill="#0B3F70" points="74.189 6.348 74.083 18.283 47.068 51.348 47.189 39.422"/>
        <text fill="#FFF" font-family="OpenSans-BoldItalic, Open Sans" font-size="12" font-style="italic" font-weight="bold" letter-spacing="-.343" transform="rotate(13 37.332 22.14)">
          <tspan x="24.919" y="26.139">F862</tspan>
        </text>
      </g>
      <g transform="translate(144 35)">
        <polygon fill="#1456A0" points="28.667 2.348 72.189 2.348 50.711 38.348 7.189 38.348" transform="rotate(8 39.689 20.348)"/>
        <polygon fill="#0B3F70" points="47.189 39.348 47.189 51.348 5.189 44.348 5.189 33.348"/>
        <polygon fill="#0B3F70" points="74.189 6.348 74.083 18.283 47.068 51.348 47.189 39.422"/>
        <text fill="#FFF" font-family="OpenSans-BoldItalic, Open Sans" font-size="12" font-style="italic" font-weight="bold" letter-spacing="-.343" transform="rotate(13 37.332 22.14)">
          <tspan x="24.919" y="26.139">F860</tspan>
        </text>
      </g>
      <g transform="translate(86 105)">
        <polygon fill="#1456A0" points="28.667 2.348 72.189 2.348 50.711 38.348 7.189 38.348" transform="rotate(8 39.689 20.348)"/>
        <polygon fill="#0B3F70" points="47.189 39.348 47.189 51.348 5.189 44.348 5.189 33.348"/>
        <polygon fill="#0B3F70" points="74.189 6.348 74.083 18.283 47.068 51.348 47.189 39.422"/>
        <text fill="#FFF" font-family="OpenSans-BoldItalic, Open Sans" font-size="12" font-style="italic" font-weight="bold" letter-spacing="-.343" transform="rotate(13 37.332 22.14)">
          <tspan x="24.919" y="26.139">F856</tspan>
        </text>
      </g>
      <g transform="translate(57 140)">
        <polygon fill="#1456A0" points="28.667 2.348 72.189 2.348 50.711 38.348 7.189 38.348" transform="rotate(8 39.689 20.348)"/>
        <polygon fill="#0B3F70" points="47.189 39.348 47.189 51.348 5.189 44.348 5.189 33.348"/>
        <polygon fill="#0B3F70" points="74.189 6.348 74.083 18.283 47.068 51.348 47.189 39.422"/>
        <text fill="#FFF" font-family="OpenSans-BoldItalic, Open Sans" font-size="12" font-style="italic" font-weight="bold" letter-spacing="-.343" transform="rotate(13 37.332 22.14)">
          <tspan x="24.919" y="26.139">F854</tspan>
        </text>
      </g>
      <g transform="translate(29 175)">
        <polygon fill="#1456A0" points="28.667 2.348 72.189 2.348 50.711 38.348 7.189 38.348" transform="rotate(8 39.689 20.348)"/>
        <polygon fill="#0B3F70" points="47.189 39.348 47.189 51.348 5.189 44.348 5.189 33.348"/>
        <polygon fill="#0B3F70" points="74.189 6.348 74.083 18.283 47.068 51.348 47.189 39.422"/>
        <text fill="#FFF" font-family="OpenSans-BoldItalic, Open Sans" font-size="12" font-style="italic" font-weight="bold" letter-spacing="-.343" transform="rotate(13 37.332 22.14)">
          <tspan x="24.919" y="26.139">F852</tspan>
        </text>
      </g>
      <g transform="translate(0 210)">
        <polygon fill="#1456A0" points="28.667 2.348 72.189 2.348 50.711 38.348 7.189 38.348" transform="rotate(8 39.689 20.348)"/>
        <polygon fill="#0B3F70" points="47.189 39.348 47.189 51.348 5.189 44.348 5.189 33.348"/>
        <polygon fill="#0B3F70" points="74.189 6.348 74.083 18.283 47.068 51.348 47.189 39.422"/>
        <text fill="#FFF" font-family="OpenSans-BoldItalic, Open Sans" font-size="12" font-style="italic" font-weight="bold" letter-spacing="-.343" transform="rotate(13 37.332 22.14)">
          <tspan x="24.919" y="26.139">F850</tspan>
        </text>
      </g>
    </g>
  </g>
</svg>
