<svg xmlns="http://www.w3.org/2000/svg" width="1163" height="1382" viewBox="0 0 1163 1382">
  <g fill="none" fill-rule="evenodd" transform="translate(-4)">
    <g transform="translate(1092)">
      <polygon fill="#ECECEC" points="28.478 2 72 2 50.522 38 7 38" transform="rotate(8 39.5 20)"/>
      <polygon fill="#8C8C94" points="47 40 47 52 5 45 5 34"/>
      <polygon fill="#BCBCBC" points="74 7 73.894 18.935 46.88 52 47 40.074"/>
      <text fill="#8C8C94" font-family="OpenSans-BoldItalic, Open Sans" font-size="12" font-style="italic" font-weight="bold" letter-spacing="-.343" transform="rotate(13 37.5 22)">
        <tspan x="24.211" y="26">D176</tspan>
      </text>
    </g>
    <g transform="translate(1063 35)">
      <polygon fill="#ECECEC" points="28.478 2 72 2 50.522 38 7 38" transform="rotate(8 39.5 20)"/>
      <polygon fill="#8C8C94" points="47 40 47 52 5 45 5 34"/>
      <polygon fill="#BCBCBC" points="74 7 73.894 18.935 46.88 52 47 40.074"/>
      <text fill="#8C8C94" font-family="OpenSans-BoldItalic, Open Sans" font-size="12" font-style="italic" font-weight="bold" letter-spacing="-.343" transform="rotate(13 37.5 22)">
        <tspan x="24.211" y="26">D174</tspan>
      </text>
    </g>
    <g transform="translate(1034 70)">
      <polygon fill="#ECECEC" points="28.478 2 72 2 50.522 38 7 38" transform="rotate(8 39.5 20)"/>
      <polygon fill="#8C8C94" points="47 40 47 52 5 45 5 34"/>
      <polygon fill="#BCBCBC" points="74 7 73.894 18.935 46.88 52 47 40.074"/>
      <text fill="#8C8C94" font-family="OpenSans-BoldItalic, Open Sans" font-size="12" font-style="italic" font-weight="bold" letter-spacing="-.343" transform="rotate(13 37.5 22)">
        <tspan x="24.211" y="26">D172</tspan>
      </text>
    </g>
    <g transform="translate(1006 105)">
      <polygon fill="#ECECEC" points="28.478 2 72 2 50.522 38 7 38" transform="rotate(8 39.5 20)"/>
      <polygon fill="#8C8C94" points="47 40 47 52 5 45 5 34"/>
      <polygon fill="#BCBCBC" points="74 7 73.894 18.935 46.88 52 47 40.074"/>
      <text fill="#8C8C94" font-family="OpenSans-BoldItalic, Open Sans" font-size="12" font-style="italic" font-weight="bold" letter-spacing="-.343" transform="rotate(13 37.5 22)">
        <tspan x="24.211" y="26">D170</tspan>
      </text>
    </g>
    <g transform="translate(977 140)">
      <polygon fill="#ECECEC" points="28.478 2 72 2 50.522 38 7 38" transform="rotate(8 39.5 20)"/>
      <polygon fill="#8C8C94" points="47 40 47 52 5 45 5 34"/>
      <polygon fill="#BCBCBC" points="74 7 73.894 18.935 46.88 52 47 40.074"/>
      <text fill="#8C8C94" font-family="OpenSans-BoldItalic, Open Sans" font-size="12" font-style="italic" font-weight="bold" letter-spacing="-.343" transform="rotate(13 37.5 22)">
        <tspan x="24.211" y="26">D168</tspan>
      </text>
    </g>
    <g transform="translate(948 175)">
      <polygon fill="#ECECEC" points="28.478 2 72 2 50.522 38 7 38" transform="rotate(8 39.5 20)"/>
      <polygon fill="#8C8C94" points="47 40 47 52 5 45 5 34"/>
      <polygon fill="#BCBCBC" points="74 7 73.894 18.935 46.88 52 47 40.074"/>
      <text fill="#8C8C94" font-family="OpenSans-BoldItalic, Open Sans" font-size="12" font-style="italic" font-weight="bold" letter-spacing="-.343" transform="rotate(13 37.5 22)">
        <tspan x="24.211" y="26">D166</tspan>
      </text>
    </g>
    <g transform="translate(919 210)">
      <polygon fill="#ECECEC" points="28.478 2 72 2 50.522 38 7 38" transform="rotate(8 39.5 20)"/>
      <polygon fill="#8C8C94" points="47 40 47 52 5 45 5 34"/>
      <polygon fill="#BCBCBC" points="74 7 73.894 18.935 46.88 52 47 40.074"/>
      <text fill="#8C8C94" font-family="OpenSans-BoldItalic, Open Sans" font-size="12" font-style="italic" font-weight="bold" letter-spacing="-.343" transform="rotate(13 37.5 22)">
        <tspan x="24.211" y="26">D164</tspan>
      </text>
    </g>
    <g transform="translate(891 245)">
      <polygon fill="#ECECEC" points="28.478 2 72 2 50.522 38 7 38" transform="rotate(8 39.5 20)"/>
      <polygon fill="#8C8C94" points="47 40 47 52 5 45 5 34"/>
      <polygon fill="#BCBCBC" points="74 7 73.894 18.935 46.88 52 47 40.074"/>
      <text fill="#8C8C94" font-family="OpenSans-BoldItalic, Open Sans" font-size="12" font-style="italic" font-weight="bold" letter-spacing="-.343" transform="rotate(13 37.5 22)">
        <tspan x="24.211" y="26">D162</tspan>
      </text>
    </g>
    <g transform="translate(862 280)">
      <polygon fill="#ECECEC" points="28.478 2 72 2 50.522 38 7 38" transform="rotate(8 39.5 20)"/>
      <polygon fill="#8C8C94" points="47 40 47 52 5 45 5 34"/>
      <polygon fill="#BCBCBC" points="74 7 73.894 18.935 46.88 52 47 40.074"/>
      <text fill="#8C8C94" font-family="OpenSans-BoldItalic, Open Sans" font-size="12" font-style="italic" font-weight="bold" letter-spacing="-.343" transform="rotate(13 37.5 22)">
        <tspan x="24.211" y="26">D160</tspan>
      </text>
    </g>
    <g transform="translate(833 315)">
      <polygon fill="#ECECEC" points="28.478 2 72 2 50.522 38 7 38" transform="rotate(8 39.5 20)"/>
      <polygon fill="#8C8C94" points="47 40 47 52 5 45 5 34"/>
      <polygon fill="#BCBCBC" points="74 7 73.894 18.935 46.88 52 47 40.074"/>
      <text fill="#8C8C94" font-family="OpenSans-BoldItalic, Open Sans" font-size="12" font-style="italic" font-weight="bold" letter-spacing="-.343" transform="rotate(13 37.5 22)">
        <tspan x="24.211" y="26">D158</tspan>
      </text>
    </g>
    <g transform="translate(805 350)">
      <polygon fill="#ECECEC" points="28.478 2 72 2 50.522 38 7 38" transform="rotate(8 39.5 20)"/>
      <polygon fill="#8C8C94" points="47 40 47 52 5 45 5 34"/>
      <polygon fill="#BCBCBC" points="74 7 73.894 18.935 46.88 52 47 40.074"/>
      <text fill="#8C8C94" font-family="OpenSans-BoldItalic, Open Sans" font-size="12" font-style="italic" font-weight="bold" letter-spacing="-.343" transform="rotate(13 37.5 22)">
        <tspan x="24.211" y="26">D156</tspan>
      </text>
    </g>
    <g transform="translate(777 385)">
      <polygon fill="#ECECEC" points="28.478 2 72 2 50.522 38 7 38" transform="rotate(8 39.5 20)"/>
      <polygon fill="#8C8C94" points="47 40 47 52 5 45 5 34"/>
      <polygon fill="#BCBCBC" points="74 7 73.894 18.935 46.88 52 47 40.074"/>
      <text fill="#8C8C94" font-family="OpenSans-BoldItalic, Open Sans" font-size="12" font-style="italic" font-weight="bold" letter-spacing="-.343" transform="rotate(13 37.5 22)">
        <tspan x="24.211" y="26">D154</tspan>
      </text>
    </g>
    <g transform="translate(749 420)">
      <polygon fill="#ECECEC" points="28.478 2 72 2 50.522 38 7 38" transform="rotate(8 39.5 20)"/>
      <polygon fill="#8C8C94" points="47 40 47 52 5 45 5 34"/>
      <polygon fill="#BCBCBC" points="74 7 73.894 18.935 46.88 52 47 40.074"/>
      <text fill="#8C8C94" font-family="OpenSans-BoldItalic, Open Sans" font-size="12" font-style="italic" font-weight="bold" letter-spacing="-.343" transform="rotate(13 37.5 22)">
        <tspan x="24.211" y="26">D152</tspan>
      </text>
    </g>
    <g transform="translate(720 455)">
      <polygon fill="#ECECEC" points="28.478 2 72 2 50.522 38 7 38" transform="rotate(8 39.5 20)"/>
      <polygon fill="#8C8C94" points="47 40 47 52 5 45 5 34"/>
      <polygon fill="#BCBCBC" points="74 7 73.894 18.935 46.88 52 47 40.074"/>
      <text fill="#8C8C94" font-family="OpenSans-BoldItalic, Open Sans" font-size="12" font-style="italic" font-weight="bold" letter-spacing="-.343" transform="rotate(13 37.5 22)">
        <tspan x="24.211" y="26">D150</tspan>
      </text>
    </g>
    <g transform="translate(691 490)">
      <polygon fill="#ECECEC" points="28.478 2 72 2 50.522 38 7 38" transform="rotate(8 39.5 20)"/>
      <polygon fill="#8C8C94" points="47 40 47 52 5 45 5 34"/>
      <polygon fill="#BCBCBC" points="74 7 73.894 18.935 46.88 52 47 40.074"/>
      <text fill="#8C8C94" font-family="OpenSans-BoldItalic, Open Sans" font-size="12" font-style="italic" font-weight="bold" letter-spacing="-.343" transform="rotate(13 37.5 22)">
        <tspan x="24.211" y="26">D148</tspan>
      </text>
    </g>
    <g transform="translate(662 525)">
      <polygon fill="#ECECEC" points="28.478 2 72 2 50.522 38 7 38" transform="rotate(8 39.5 20)"/>
      <polygon fill="#8C8C94" points="47 40 47 52 5 45 5 34"/>
      <polygon fill="#BCBCBC" points="74 7 73.894 18.935 46.88 52 47 40.074"/>
      <text fill="#8C8C94" font-family="OpenSans-BoldItalic, Open Sans" font-size="12" font-style="italic" font-weight="bold" letter-spacing="-.343" transform="rotate(13 37.5 22)">
        <tspan x="24.211" y="26">D146</tspan>
      </text>
    </g>
    <g transform="translate(634 560)">
      <polygon fill="#ECECEC" points="28.478 2 72 2 50.522 38 7 38" transform="rotate(8 39.5 20)"/>
      <polygon fill="#8C8C94" points="47 40 47 52 5 45 5 34"/>
      <polygon fill="#BCBCBC" points="74 7 73.894 18.935 46.88 52 47 40.074"/>
      <text fill="#8C8C94" font-family="OpenSans-BoldItalic, Open Sans" font-size="12" font-style="italic" font-weight="bold" letter-spacing="-.343" transform="rotate(13 37.5 22)">
        <tspan x="24.211" y="26">D144</tspan>
      </text>
    </g>
    <g transform="translate(605 595)">
      <polygon fill="#ECECEC" points="28.478 2 72 2 50.522 38 7 38" transform="rotate(8 39.5 20)"/>
      <polygon fill="#8C8C94" points="47 40 47 52 5 45 5 34"/>
      <polygon fill="#BCBCBC" points="74 7 73.894 18.935 46.88 52 47 40.074"/>
      <text fill="#8C8C94" font-family="OpenSans-BoldItalic, Open Sans" font-size="12" font-style="italic" font-weight="bold" letter-spacing="-.343" transform="rotate(13 37.5 22)">
        <tspan x="24.211" y="26">D142</tspan>
      </text>
    </g>
    <g transform="translate(576 630)">
      <polygon fill="#ECECEC" points="28.478 2 72 2 50.522 38 7 38" transform="rotate(8 39.5 20)"/>
      <polygon fill="#8C8C94" points="47 40 47 52 5 45 5 34"/>
      <polygon fill="#BCBCBC" points="74 7 73.894 18.935 46.88 52 47 40.074"/>
      <text fill="#8C8C94" font-family="OpenSans-BoldItalic, Open Sans" font-size="12" font-style="italic" font-weight="bold" letter-spacing="-.343" transform="rotate(13 37.5 22)">
        <tspan x="24.211" y="26">D140</tspan>
      </text>
    </g>
    <g transform="translate(547 665)">
      <polygon fill="#ECECEC" points="28.478 2 72 2 50.522 38 7 38" transform="rotate(8 39.5 20)"/>
      <polygon fill="#8C8C94" points="47 40 47 52 5 45 5 34"/>
      <polygon fill="#BCBCBC" points="74 7 73.894 18.935 46.88 52 47 40.074"/>
      <text fill="#8C8C94" font-family="OpenSans-BoldItalic, Open Sans" font-size="12" font-style="italic" font-weight="bold" letter-spacing="-.343" transform="rotate(13 37.5 22)">
        <tspan x="24.211" y="26">D138</tspan>
      </text>
    </g>
    <g transform="translate(519 700)">
      <polygon fill="#ECECEC" points="28.478 2 72 2 50.522 38 7 38" transform="rotate(8 39.5 20)"/>
      <polygon fill="#8C8C94" points="47 40 47 52 5 45 5 34"/>
      <polygon fill="#BCBCBC" points="74 7 73.894 18.935 46.88 52 47 40.074"/>
      <text fill="#8C8C94" font-family="OpenSans-BoldItalic, Open Sans" font-size="12" font-style="italic" font-weight="bold" letter-spacing="-.343" transform="rotate(13 37.5 22)">
        <tspan x="24.211" y="26">D136</tspan>
      </text>
    </g>
    <g transform="translate(490 735)">
      <polygon fill="#ECECEC" points="28.478 2 72 2 50.522 38 7 38" transform="rotate(8 39.5 20)"/>
      <polygon fill="#8C8C94" points="47 40 47 52 5 45 5 34"/>
      <polygon fill="#BCBCBC" points="74 7 73.894 18.935 46.88 52 47 40.074"/>
      <text fill="#8C8C94" font-family="OpenSans-BoldItalic, Open Sans" font-size="12" font-style="italic" font-weight="bold" letter-spacing="-.343" transform="rotate(13 37.5 22)">
        <tspan x="24.211" y="26">D134</tspan>
      </text>
    </g>
    <g transform="translate(461 770)">
      <polygon fill="#ECECEC" points="28.478 2 72 2 50.522 38 7 38" transform="rotate(8 39.5 20)"/>
      <polygon fill="#8C8C94" points="47 40 47 52 5 45 5 34"/>
      <polygon fill="#BCBCBC" points="74 7 73.894 18.935 46.88 52 47 40.074"/>
      <text fill="#8C8C94" font-family="OpenSans-BoldItalic, Open Sans" font-size="12" font-style="italic" font-weight="bold" letter-spacing="-.343" transform="rotate(13 37.5 22)">
        <tspan x="24.211" y="26">D132</tspan>
      </text>
    </g>
    <g transform="translate(432 805)">
      <polygon fill="#ECECEC" points="28.478 2 72 2 50.522 38 7 38" transform="rotate(8 39.5 20)"/>
      <polygon fill="#8C8C94" points="47 40 47 52 5 45 5 34"/>
      <polygon fill="#BCBCBC" points="74 7 73.894 18.935 46.88 52 47 40.074"/>
      <text fill="#8C8C94" font-family="OpenSans-BoldItalic, Open Sans" font-size="12" font-style="italic" font-weight="bold" letter-spacing="-.343" transform="rotate(13 37.5 22)">
        <tspan x="24.211" y="26">D130</tspan>
      </text>
    </g>
    <g transform="translate(404 840)">
      <polygon fill="#ECECEC" points="28.478 2 72 2 50.522 38 7 38" transform="rotate(8 39.5 20)"/>
      <polygon fill="#8C8C94" points="47 40 47 52 5 45 5 34"/>
      <polygon fill="#BCBCBC" points="74 7 73.894 18.935 46.88 52 47 40.074"/>
      <text fill="#8C8C94" font-family="OpenSans-BoldItalic, Open Sans" font-size="12" font-style="italic" font-weight="bold" letter-spacing="-.343" transform="rotate(13 37.5 22)">
        <tspan x="24.211" y="26">D128</tspan>
      </text>
    </g>
    <g transform="translate(375 875)">
      <polygon fill="#ECECEC" points="28.478 2 72 2 50.522 38 7 38" transform="rotate(8 39.5 20)"/>
      <polygon fill="#8C8C94" points="47 40 47 52 5 45 5 34"/>
      <polygon fill="#BCBCBC" points="74 7 73.894 18.935 46.88 52 47 40.074"/>
      <text fill="#8C8C94" font-family="OpenSans-BoldItalic, Open Sans" font-size="12" font-style="italic" font-weight="bold" letter-spacing="-.343" transform="rotate(13 37.5 22)">
        <tspan x="24.211" y="26">D126</tspan>
      </text>
    </g>
    <g transform="translate(346 910)">
      <polygon fill="#ECECEC" points="28.478 2 72 2 50.522 38 7 38" transform="rotate(8 39.5 20)"/>
      <polygon fill="#8C8C94" points="47 40 47 52 5 45 5 34"/>
      <polygon fill="#BCBCBC" points="74 7 73.894 18.935 46.88 52 47 40.074"/>
      <text fill="#8C8C94" font-family="OpenSans-BoldItalic, Open Sans" font-size="12" font-style="italic" font-weight="bold" letter-spacing="-.343" transform="rotate(13 37.5 22)">
        <tspan x="24.211" y="26">D124</tspan>
      </text>
    </g>
    <g transform="translate(317 945)">
      <polygon fill="#ECECEC" points="28.478 2 72 2 50.522 38 7 38" transform="rotate(8 39.5 20)"/>
      <polygon fill="#8C8C94" points="47 40 47 52 5 45 5 34"/>
      <polygon fill="#BCBCBC" points="74 7 73.894 18.935 46.88 52 47 40.074"/>
      <text fill="#8C8C94" font-family="OpenSans-BoldItalic, Open Sans" font-size="12" font-style="italic" font-weight="bold" letter-spacing="-.343" transform="rotate(13 37.5 22)">
        <tspan x="24.211" y="26">D122</tspan>
      </text>
    </g>
    <g transform="translate(289 980)">
      <polygon fill="#ECECEC" points="28.478 2 72 2 50.522 38 7 38" transform="rotate(8 39.5 20)"/>
      <polygon fill="#8C8C94" points="47 40 47 52 5 45 5 34"/>
      <polygon fill="#BCBCBC" points="74 7 73.894 18.935 46.88 52 47 40.074"/>
      <text fill="#8C8C94" font-family="OpenSans-BoldItalic, Open Sans" font-size="12" font-style="italic" font-weight="bold" letter-spacing="-.343" transform="rotate(13 37.5 22)">
        <tspan x="24.601" y="26">C120</tspan>
      </text>
    </g>
    <g transform="translate(260 1015)">
      <polygon fill="#ECECEC" points="28.478 2 72 2 50.522 38 7 38" transform="rotate(8 39.5 20)"/>
      <polygon fill="#8C8C94" points="47 40 47 52 5 45 5 34"/>
      <polygon fill="#BCBCBC" points="74 7 73.894 18.935 46.88 52 47 40.074"/>
      <text fill="#8C8C94" font-family="OpenSans-BoldItalic, Open Sans" font-size="12" font-style="italic" font-weight="bold" letter-spacing="-.343" transform="rotate(13 37.5 22)">
        <tspan x="24.211" y="26">D118</tspan>
      </text>
    </g>
    <g transform="translate(231 1050)">
      <polygon fill="#ECECEC" points="28.478 2 72 2 50.522 38 7 38" transform="rotate(8 39.5 20)"/>
      <polygon fill="#8C8C94" points="47 40 47 52 5 45 5 34"/>
      <polygon fill="#BCBCBC" points="74 7 73.894 18.935 46.88 52 47 40.074"/>
      <text fill="#8C8C94" font-family="OpenSans-BoldItalic, Open Sans" font-size="12" font-style="italic" font-weight="bold" letter-spacing="-.343" transform="rotate(13 37.5 22)">
        <tspan x="24.211" y="26">D116</tspan>
      </text>
    </g>
    <g transform="translate(202 1085)">
      <polygon fill="#ECECEC" points="28.478 2 72 2 50.522 38 7 38" transform="rotate(8 39.5 20)"/>
      <polygon fill="#8C8C94" points="47 40 47 52 5 45 5 34"/>
      <polygon fill="#BCBCBC" points="74 7 73.894 18.935 46.88 52 47 40.074"/>
      <text fill="#8C8C94" font-family="OpenSans-BoldItalic, Open Sans" font-size="12" font-style="italic" font-weight="bold" letter-spacing="-.343" transform="rotate(13 37.5 22)">
        <tspan x="24.211" y="26">D114</tspan>
      </text>
    </g>
    <g transform="translate(173 1120)">
      <polygon fill="#ECECEC" points="28.478 2 72 2 50.522 38 7 38" transform="rotate(8 39.5 20)"/>
      <polygon fill="#8C8C94" points="47 40 47 52 5 45 5 34"/>
      <polygon fill="#BCBCBC" points="74 7 73.894 18.935 46.88 52 47 40.074"/>
      <text fill="#8C8C94" font-family="OpenSans-BoldItalic, Open Sans" font-size="12" font-style="italic" font-weight="bold" letter-spacing="-.343" transform="rotate(13 37.5 22)">
        <tspan x="24.211" y="26">D112</tspan>
      </text>
    </g>
    <g transform="translate(144 1155)">
      <polygon fill="#ECECEC" points="28.478 2 72 2 50.522 38 7 38" transform="rotate(8 39.5 20)"/>
      <polygon fill="#8C8C94" points="47 40 47 52 5 45 5 34"/>
      <polygon fill="#BCBCBC" points="74 7 73.894 18.935 46.88 52 47 40.074"/>
      <text fill="#8C8C94" font-family="OpenSans-BoldItalic, Open Sans" font-size="12" font-style="italic" font-weight="bold" letter-spacing="-.343" transform="rotate(13 37.5 22)">
        <tspan x="24.211" y="26">D110</tspan>
      </text>
    </g>
    <g transform="translate(115 1190)">
      <polygon fill="#ECECEC" points="28.478 2 72 2 50.522 38 7 38" transform="rotate(8 39.5 20)"/>
      <polygon fill="#8C8C94" points="47 40 47 52 5 45 5 34"/>
      <polygon fill="#BCBCBC" points="74 7 73.894 18.935 46.88 52 47 40.074"/>
      <text fill="#8C8C94" font-family="OpenSans-BoldItalic, Open Sans" font-size="12" font-style="italic" font-weight="bold" letter-spacing="-.343" transform="rotate(13 37.5 22)">
        <tspan x="24.211" y="26">D108</tspan>
      </text>
    </g>
    <g transform="translate(87 1225)">
      <polygon fill="#ECECEC" points="28.478 2 72 2 50.522 38 7 38" transform="rotate(8 39.5 20)"/>
      <polygon fill="#8C8C94" points="47 40 47 52 5 45 5 34"/>
      <polygon fill="#BCBCBC" points="74 7 73.894 18.935 46.88 52 47 40.074"/>
      <text fill="#8C8C94" font-family="OpenSans-BoldItalic, Open Sans" font-size="12" font-style="italic" font-weight="bold" letter-spacing="-.343" transform="rotate(13 37.5 22)">
        <tspan x="24.211" y="26">D106</tspan>
      </text>
    </g>
    <g transform="translate(58 1260)">
      <polygon fill="#ECECEC" points="28.478 2 72 2 50.522 38 7 38" transform="rotate(8 39.5 20)"/>
      <polygon fill="#8C8C94" points="47 40 47 52 5 45 5 34"/>
      <polygon fill="#BCBCBC" points="74 7 73.894 18.935 46.88 52 47 40.074"/>
      <text fill="#8C8C94" font-family="OpenSans-BoldItalic, Open Sans" font-size="12" font-style="italic" font-weight="bold" letter-spacing="-.343" transform="rotate(13 37.5 22)">
        <tspan x="24.211" y="26">D104</tspan>
      </text>
    </g>
    <g transform="translate(29 1295)">
      <polygon fill="#ECECEC" points="28.478 2 72 2 50.522 38 7 38" transform="rotate(8 39.5 20)"/>
      <polygon fill="#8C8C94" points="47 40 47 52 5 45 5 34"/>
      <polygon fill="#BCBCBC" points="74 7 73.894 18.935 46.88 52 47 40.074"/>
      <text fill="#8C8C94" font-family="OpenSans-BoldItalic, Open Sans" font-size="12" font-style="italic" font-weight="bold" letter-spacing="-.343" transform="rotate(13 37.5 22)">
        <tspan x="24.211" y="26">D102</tspan>
      </text>
    </g>
    <g transform="translate(0 1330)">
      <polygon fill="#ECECEC" points="28.478 2 72 2 50.522 38 7 38" transform="rotate(8 39.5 20)"/>
      <polygon fill="#8C8C94" points="47 40 47 52 5 45 5 34"/>
      <polygon fill="#BCBCBC" points="74 7 73.894 18.935 46.88 52 47 40.074"/>
      <text fill="#8C8C94" font-family="OpenSans-BoldItalic, Open Sans" font-size="12" font-style="italic" font-weight="bold" letter-spacing="-.343" transform="rotate(13 37.5 22)">
        <tspan x="24.211" y="26">D100</tspan>
      </text>
    </g>
  </g>
</svg>
