<svg xmlns="http://www.w3.org/2000/svg" width="555" height="385" viewBox="0 0 555 385">
  <g fill="none" fill-rule="evenodd" transform="translate(-5 -1)">
    <g transform="translate(172)">
      <polygon fill="#1456A0" points="28.667 2.348 72.189 2.348 50.711 38.348 7.189 38.348" transform="rotate(8 39.689 20.348)"/>
      <polygon fill="#0B3F70" points="47.189 39.348 47.189 51.348 5.189 44.348 5.189 33.348"/>
      <polygon fill="#0B3F70" points="74.189 6.348 74.083 18.283 47.068 51.348 47.189 39.422"/>
      <text fill="#FFF" font-family="OpenSans-BoldItalic, Open Sans" font-size="12" font-style="italic" font-weight="bold" letter-spacing="-.343" transform="rotate(13 37.332 22.14)">
        <tspan x="23.964" y="26.139">G863</tspan>
      </text>
    </g>
    <g transform="translate(144 35)">
      <polygon fill="#1456A0" points="28.667 2.348 72.189 2.348 50.711 38.348 7.189 38.348" transform="rotate(8 39.689 20.348)"/>
      <polygon fill="#0B3F70" points="47.189 39.348 47.189 51.348 5.189 44.348 5.189 33.348"/>
      <polygon fill="#0B3F70" points="74.189 6.348 74.083 18.283 47.068 51.348 47.189 39.422"/>
      <text fill="#FFF" font-family="OpenSans-BoldItalic, Open Sans" font-size="12" font-style="italic" font-weight="bold" letter-spacing="-.343" transform="rotate(13 37.332 22.14)">
        <tspan x="23.964" y="26.139">G861</tspan>
      </text>
    </g>
    <g transform="translate(115 70)">
      <polygon fill="#1456A0" points="28.667 2.348 72.189 2.348 50.711 38.348 7.189 38.348" transform="rotate(8 39.689 20.348)"/>
      <polygon fill="#0B3F70" points="47.189 39.348 47.189 51.348 5.189 44.348 5.189 33.348"/>
      <polygon fill="#0B3F70" points="74.189 6.348 74.083 18.283 47.068 51.348 47.189 39.422"/>
      <text fill="#FFF" font-family="OpenSans-BoldItalic, Open Sans" font-size="12" font-style="italic" font-weight="bold" letter-spacing="-.343" transform="rotate(13 37.332 22.14)">
        <tspan x="23.964" y="26.139">G859</tspan>
      </text>
    </g>
    <g transform="translate(86 105)">
      <polygon fill="#1456A0" points="28.667 2.348 72.189 2.348 50.711 38.348 7.189 38.348" transform="rotate(8 39.689 20.348)"/>
      <polygon fill="#0B3F70" points="47.189 39.348 47.189 51.348 5.189 44.348 5.189 33.348"/>
      <polygon fill="#0B3F70" points="74.189 6.348 74.083 18.283 47.068 51.348 47.189 39.422"/>
      <text fill="#FFF" font-family="OpenSans-BoldItalic, Open Sans" font-size="12" font-style="italic" font-weight="bold" letter-spacing="-.343" transform="rotate(13 37.332 22.14)">
        <tspan x="23.964" y="26.139">G857</tspan>
      </text>
    </g>
    <g transform="translate(57 140)">
      <polygon fill="#1456A0" points="28.667 2.348 72.189 2.348 50.711 38.348 7.189 38.348" transform="rotate(8 39.689 20.348)"/>
      <polygon fill="#0B3F70" points="47.189 39.348 47.189 51.348 5.189 44.348 5.189 33.348"/>
      <polygon fill="#0B3F70" points="74.189 6.348 74.083 18.283 47.068 51.348 47.189 39.422"/>
      <text fill="#FFF" font-family="OpenSans-BoldItalic, Open Sans" font-size="12" font-style="italic" font-weight="bold" letter-spacing="-.343" transform="rotate(13 37.332 22.14)">
        <tspan x="23.964" y="26.139">G855</tspan>
      </text>
    </g>
    <g transform="translate(29 175)">
      <polygon fill="#1456A0" points="28.667 2.348 72.189 2.348 50.711 38.348 7.189 38.348" transform="rotate(8 39.689 20.348)"/>
      <polygon fill="#0B3F70" points="47.189 39.348 47.189 51.348 5.189 44.348 5.189 33.348"/>
      <polygon fill="#0B3F70" points="74.189 6.348 74.083 18.283 47.068 51.348 47.189 39.422"/>
      <text fill="#FFF" font-family="OpenSans-BoldItalic, Open Sans" font-size="12" font-style="italic" font-weight="bold" letter-spacing="-.343" transform="rotate(13 37.332 22.14)">
        <tspan x="23.964" y="26.139">G853</tspan>
      </text>
    </g>
    <g transform="translate(0 210)">
      <polygon fill="#1456A0" points="28.667 2.348 72.189 2.348 50.711 38.348 7.189 38.348" transform="rotate(8 39.689 20.348)"/>
      <polygon fill="#0B3F70" points="47.189 39.348 47.189 51.348 5.189 44.348 5.189 33.348"/>
      <polygon fill="#0B3F70" points="74.189 6.348 74.083 18.283 47.068 51.348 47.189 39.422"/>
      <text fill="#FFF" font-family="OpenSans-BoldItalic, Open Sans" font-size="12" font-style="italic" font-weight="bold" letter-spacing="-.343" transform="rotate(13 37.332 22.14)">
        <tspan x="23.964" y="26.139">G851</tspan>
      </text>
    </g>
    <g transform="translate(45 7)">
      <g transform="translate(172)">
        <polygon fill="#ECECEC" points="28.478 2 72 2 50.522 38 7 38" transform="rotate(8 39.5 20)"/>
        <polygon fill="#8C8C94" points="47 40 47 52 5 45 5 34"/>
        <polygon fill="#BCBCBC" points="74 7 73.894 18.935 46.88 52 47 40.074"/>
        <text fill="#8C8C94" font-family="OpenSans-BoldItalic, Open Sans" font-size="12" font-style="italic" font-weight="bold" letter-spacing="-.343" transform="rotate(13 37.5 22)">
          <tspan x="24.132" y="26">G962</tspan>
        </text>
      </g>
      <g transform="translate(144 35)">
        <polygon fill="#ECECEC" points="28.478 2 72 2 50.522 38 7 38" transform="rotate(8 39.5 20)"/>
        <polygon fill="#8C8C94" points="47 40 47 52 5 45 5 34"/>
        <polygon fill="#BCBCBC" points="74 7 73.894 18.935 46.88 52 47 40.074"/>
        <text fill="#8C8C94" font-family="OpenSans-BoldItalic, Open Sans" font-size="12" font-style="italic" font-weight="bold" letter-spacing="-.343" transform="rotate(13 37.5 22)">
          <tspan x="24.132" y="26">G960</tspan>
        </text>
      </g>
      <g transform="translate(115 70)">
        <polygon fill="#ECECEC" points="28.478 2 72 2 50.522 38 7 38" transform="rotate(8 39.5 20)"/>
        <polygon fill="#8C8C94" points="47 40 47 52 5 45 5 34"/>
        <polygon fill="#BCBCBC" points="74 7 73.894 18.935 46.88 52 47 40.074"/>
        <text fill="#8C8C94" font-family="OpenSans-BoldItalic, Open Sans" font-size="12" font-style="italic" font-weight="bold" letter-spacing="-.343" transform="rotate(13 37.5 22)">
          <tspan x="24.132" y="26">G958</tspan>
        </text>
      </g>
      <g transform="translate(86 105)">
        <polygon fill="#ECECEC" points="28.478 2 72 2 50.522 38 7 38" transform="rotate(8 39.5 20)"/>
        <polygon fill="#8C8C94" points="47 40 47 52 5 45 5 34"/>
        <polygon fill="#BCBCBC" points="74 7 73.894 18.935 46.88 52 47 40.074"/>
        <text fill="#8C8C94" font-family="OpenSans-BoldItalic, Open Sans" font-size="12" font-style="italic" font-weight="bold" letter-spacing="-.343" transform="rotate(13 37.5 22)">
          <tspan x="24.132" y="26">G956</tspan>
        </text>
      </g>
      <g transform="translate(57 140)">
        <polygon fill="#ECECEC" points="28.478 2 72 2 50.522 38 7 38" transform="rotate(8 39.5 20)"/>
        <polygon fill="#8C8C94" points="47 40 47 52 5 45 5 34"/>
        <polygon fill="#BCBCBC" points="74 7 73.894 18.935 46.88 52 47 40.074"/>
        <text fill="#8C8C94" font-family="OpenSans-BoldItalic, Open Sans" font-size="12" font-style="italic" font-weight="bold" letter-spacing="-.343" transform="rotate(13 37.5 22)">
          <tspan x="24.132" y="26">G954</tspan>
        </text>
      </g>
      <g transform="translate(29 175)">
        <polygon fill="#ECECEC" points="28.478 2 72 2 50.522 38 7 38" transform="rotate(8 39.5 20)"/>
        <polygon fill="#8C8C94" points="47 40 47 52 5 45 5 34"/>
        <polygon fill="#BCBCBC" points="74 7 73.894 18.935 46.88 52 47 40.074"/>
        <text fill="#8C8C94" font-family="OpenSans-BoldItalic, Open Sans" font-size="12" font-style="italic" font-weight="bold" letter-spacing="-.343" transform="rotate(13 37.5 22)">
          <tspan x="24.132" y="26">G952</tspan>
        </text>
      </g>
      <g transform="translate(0 210)">
        <polygon fill="#ECECEC" points="28.478 2 72 2 50.522 38 7 38" transform="rotate(8 39.5 20)"/>
        <polygon fill="#8C8C94" points="47 40 47 52 5 45 5 34"/>
        <polygon fill="#BCBCBC" points="74 7 73.894 18.935 46.88 52 47 40.074"/>
        <text fill="#8C8C94" font-family="OpenSans-BoldItalic, Open Sans" font-size="12" font-style="italic" font-weight="bold" letter-spacing="-.343" transform="rotate(13 37.5 22)">
          <tspan x="24.132" y="26">G950</tspan>
        </text>
      </g>
    </g>
    <g transform="translate(75 26)">
      <g transform="translate(230)">
        <polygon fill="#ECECEC" points="28.478 2 72 2 50.522 38 7 38" transform="rotate(8 39.5 20)"/>
        <polygon fill="#8C8C94" points="47 40 47 52 5 45 5 34"/>
        <polygon fill="#BCBCBC" points="74 7 73.894 18.935 46.88 52 47 40.074"/>
        <text fill="#8C8C94" font-family="OpenSans-BoldItalic, Open Sans" font-size="12" font-style="italic" font-weight="bold" letter-spacing="-.343" transform="rotate(13 37.5 22)">
          <tspan x="24.132" y="26">G963</tspan>
        </text>
      </g>
      <g transform="translate(202 35)">
        <polygon fill="#ECECEC" points="28.478 2 72 2 50.522 38 7 38" transform="rotate(8 39.5 20)"/>
        <polygon fill="#8C8C94" points="47 40 47 52 5 45 5 34"/>
        <polygon fill="#BCBCBC" points="74 7 73.894 18.935 46.88 52 47 40.074"/>
        <text fill="#8C8C94" font-family="OpenSans-BoldItalic, Open Sans" font-size="12" font-style="italic" font-weight="bold" letter-spacing="-.343" transform="rotate(13 37.5 22)">
          <tspan x="24.132" y="26">G961</tspan>
        </text>
      </g>
      <g transform="translate(173 70)">
        <polygon fill="#ECECEC" points="28.478 2 72 2 50.522 38 7 38" transform="rotate(8 39.5 20)"/>
        <polygon fill="#8C8C94" points="47 40 47 52 5 45 5 34"/>
        <polygon fill="#BCBCBC" points="74 7 73.894 18.935 46.88 52 47 40.074"/>
        <text fill="#8C8C94" font-family="OpenSans-BoldItalic, Open Sans" font-size="12" font-style="italic" font-weight="bold" letter-spacing="-.343" transform="rotate(13 37.5 22)">
          <tspan x="24.132" y="26">G959</tspan>
        </text>
      </g>
      <g transform="translate(144 105)">
        <polygon fill="#ECECEC" points="28.478 2 72 2 50.522 38 7 38" transform="rotate(8 39.5 20)"/>
        <polygon fill="#8C8C94" points="47 40 47 52 5 45 5 34"/>
        <polygon fill="#BCBCBC" points="74 7 73.894 18.935 46.88 52 47 40.074"/>
        <text fill="#8C8C94" font-family="OpenSans-BoldItalic, Open Sans" font-size="12" font-style="italic" font-weight="bold" letter-spacing="-.343" transform="rotate(13 37.5 22)">
          <tspan x="24.132" y="26">G957</tspan>
        </text>
      </g>
      <g transform="translate(115 140)">
        <polygon fill="#ECECEC" points="28.478 2 72 2 50.522 38 7 38" transform="rotate(8 39.5 20)"/>
        <polygon fill="#8C8C94" points="47 40 47 52 5 45 5 34"/>
        <polygon fill="#BCBCBC" points="74 7 73.894 18.935 46.88 52 47 40.074"/>
        <text fill="#8C8C94" font-family="OpenSans-BoldItalic, Open Sans" font-size="12" font-style="italic" font-weight="bold" letter-spacing="-.343" transform="rotate(13 37.5 22)">
          <tspan x="24.132" y="26">G955</tspan>
        </text>
      </g>
      <g transform="translate(87 175)">
        <polygon fill="#ECECEC" points="28.478 2 72 2 50.522 38 7 38" transform="rotate(8 39.5 20)"/>
        <polygon fill="#8C8C94" points="47 40 47 52 5 45 5 34"/>
        <polygon fill="#BCBCBC" points="74 7 73.894 18.935 46.88 52 47 40.074"/>
        <text fill="#8C8C94" font-family="OpenSans-BoldItalic, Open Sans" font-size="12" font-style="italic" font-weight="bold" letter-spacing="-.343" transform="rotate(13 37.5 22)">
          <tspan x="24.132" y="26">G953</tspan>
        </text>
      </g>
      <g transform="translate(58 210)">
        <polygon fill="#ECECEC" points="28.478 2 72 2 50.522 38 7 38" transform="rotate(8 39.5 20)"/>
        <polygon fill="#8C8C94" points="47 40 47 52 5 45 5 34"/>
        <polygon fill="#BCBCBC" points="74 7 73.894 18.935 46.88 52 47 40.074"/>
        <text fill="#8C8C94" font-family="OpenSans-BoldItalic, Open Sans" font-size="12" font-style="italic" font-weight="bold" letter-spacing="-.343" transform="rotate(13 37.5 22)">
          <tspan x="24.132" y="26">G951</tspan>
        </text>
      </g>
      <g transform="translate(29 245)">
        <polygon fill="#ECECEC" points="28.478 2 72 2 50.522 38 7 38" transform="rotate(8 39.5 20)"/>
        <polygon fill="#8C8C94" points="47 40 47 52 5 45 5 34"/>
        <polygon fill="#BCBCBC" points="74 7 73.894 18.935 46.88 52 47 40.074"/>
        <text fill="#8C8C94" font-family="OpenSans-BoldItalic, Open Sans" font-size="12" font-style="italic" font-weight="bold" letter-spacing="-.343" transform="rotate(13 37.5 22)">
          <tspan x="24.132" y="26">G949</tspan>
        </text>
      </g>
      <g transform="translate(0 280)">
        <polygon fill="#1456A0" points="28.667 2.348 72.189 2.348 50.711 38.348 7.189 38.348" transform="rotate(8 39.689 20.348)"/>
        <polygon fill="#0B3F70" points="47.189 39.348 47.189 51.348 5.189 44.348 5.189 33.348"/>
        <polygon fill="#0B3F70" points="74.189 6.348 74.083 18.283 47.068 51.348 47.189 39.422"/>
        <text fill="#FFF" font-family="OpenSans-BoldItalic, Open Sans" font-size="12" font-style="italic" font-weight="bold" letter-spacing="-.343" transform="rotate(13 37.332 22.14)">
          <tspan x="23.964" y="26.139">G947</tspan>
        </text>
      </g>
    </g>
    <g transform="translate(120 33)">
      <g transform="translate(230)">
        <polygon fill="#ECECEC" points="28.478 2 72 2 50.522 38 7 38" transform="rotate(8 39.5 20)"/>
        <polygon fill="#8C8C94" points="47 40 47 52 5 45 5 34"/>
        <polygon fill="#BCBCBC" points="74 7 73.894 18.935 46.88 52 47 40.074"/>
        <text fill="#8C8C94" font-family="OpenSans-BoldItalic, Open Sans" font-size="12" font-style="italic" font-weight="bold" letter-spacing="-.343" transform="rotate(13 37.5 22)">
          <tspan x="20.999" y="26">G1062</tspan>
        </text>
      </g>
      <g transform="translate(202 35)">
        <polygon fill="#ECECEC" points="28.478 2 72 2 50.522 38 7 38" transform="rotate(8 39.5 20)"/>
        <polygon fill="#8C8C94" points="47 40 47 52 5 45 5 34"/>
        <polygon fill="#BCBCBC" points="74 7 73.894 18.935 46.88 52 47 40.074"/>
        <text fill="#8C8C94" font-family="OpenSans-BoldItalic, Open Sans" font-size="12" font-style="italic" font-weight="bold" letter-spacing="-.343" transform="rotate(13 37.5 22)">
          <tspan x="20.999" y="26">G1060</tspan>
        </text>
      </g>
      <g transform="translate(173 70)">
        <polygon fill="#ECECEC" points="28.478 2 72 2 50.522 38 7 38" transform="rotate(8 39.5 20)"/>
        <polygon fill="#8C8C94" points="47 40 47 52 5 45 5 34"/>
        <polygon fill="#BCBCBC" points="74 7 73.894 18.935 46.88 52 47 40.074"/>
        <text fill="#8C8C94" font-family="OpenSans-BoldItalic, Open Sans" font-size="12" font-style="italic" font-weight="bold" letter-spacing="-.343" transform="rotate(13 37.5 22)">
          <tspan x="20.999" y="26">G1058</tspan>
        </text>
      </g>
      <g transform="translate(144 105)">
        <polygon fill="#ECECEC" points="28.478 2 72 2 50.522 38 7 38" transform="rotate(8 39.5 20)"/>
        <polygon fill="#8C8C94" points="47 40 47 52 5 45 5 34"/>
        <polygon fill="#BCBCBC" points="74 7 73.894 18.935 46.88 52 47 40.074"/>
        <text fill="#8C8C94" font-family="OpenSans-BoldItalic, Open Sans" font-size="12" font-style="italic" font-weight="bold" letter-spacing="-.343" transform="rotate(13 37.5 22)">
          <tspan x="20.999" y="26">G1056</tspan>
        </text>
      </g>
      <g transform="translate(87 175)">
        <polygon fill="#ECECEC" points="28.478 2 72 2 50.522 38 7 38" transform="rotate(8 39.5 20)"/>
        <polygon fill="#8C8C94" points="47 40 47 52 5 45 5 34"/>
        <polygon fill="#BCBCBC" points="74 7 73.894 18.935 46.88 52 47 40.074"/>
        <text fill="#8C8C94" font-family="OpenSans-BoldItalic, Open Sans" font-size="12" font-style="italic" font-weight="bold" letter-spacing="-.343" transform="rotate(13 37.5 22)">
          <tspan x="20.999" y="26">G1052</tspan>
        </text>
      </g>
      <g transform="translate(58 210)">
        <polygon fill="#ECECEC" points="28.478 2 72 2 50.522 38 7 38" transform="rotate(8 39.5 20)"/>
        <polygon fill="#8C8C94" points="47 40 47 52 5 45 5 34"/>
        <polygon fill="#BCBCBC" points="74 7 73.894 18.935 46.88 52 47 40.074"/>
        <text fill="#8C8C94" font-family="OpenSans-BoldItalic, Open Sans" font-size="12" font-style="italic" font-weight="bold" letter-spacing="-.343" transform="rotate(13 37.5 22)">
          <tspan x="20.999" y="26">G1050</tspan>
        </text>
      </g>
      <g transform="translate(29 245)">
        <polygon fill="#ECECEC" points="28.478 2 72 2 50.522 38 7 38" transform="rotate(8 39.5 20)"/>
        <polygon fill="#8C8C94" points="47 40 47 52 5 45 5 34"/>
        <polygon fill="#BCBCBC" points="74 7 73.894 18.935 46.88 52 47 40.074"/>
        <text fill="#8C8C94" font-family="OpenSans-BoldItalic, Open Sans" font-size="12" font-style="italic" font-weight="bold" letter-spacing="-.343" transform="rotate(13 37.5 22)">
          <tspan x="20.999" y="26">G1048</tspan>
        </text>
      </g>
      <g transform="translate(0 280)">
        <polygon fill="#1456A0" points="28.667 2.348 72.189 2.348 50.711 38.348 7.189 38.348" transform="rotate(8 39.689 20.348)"/>
        <polygon fill="#0B3F70" points="47.189 39.348 47.189 51.348 5.189 44.348 5.189 33.348"/>
        <polygon fill="#0B3F70" points="74.189 6.348 74.083 18.283 47.068 51.348 47.189 39.422"/>
        <text fill="#FFF" font-family="OpenSans-BoldItalic, Open Sans" font-size="12" font-style="italic" font-weight="bold" letter-spacing="-.343" transform="rotate(13 37.332 22.14)">
          <tspan x="20.83" y="26.139">G1046</tspan>
        </text>
      </g>
    </g>
    <g transform="translate(210 47)">
      <g transform="translate(230)">
        <polygon fill="#ECECEC" points="28.478 2 72 2 50.522 38 7 38" transform="rotate(8 39.5 20)"/>
        <polygon fill="#8C8C94" points="47 40 47 52 5 45 5 34"/>
        <polygon fill="#BCBCBC" points="74 7 73.894 18.935 46.88 52 47 40.074"/>
        <text fill="#8C8C94" font-family="OpenSans-BoldItalic, Open Sans" font-size="12" font-style="italic" font-weight="bold" letter-spacing="-.343" transform="rotate(13 37.5 22)">
          <tspan x="20.999" y="26">G1063</tspan>
        </text>
      </g>
      <g transform="translate(202 35)">
        <polygon fill="#ECECEC" points="28.478 2 72 2 50.522 38 7 38" transform="rotate(8 39.5 20)"/>
        <polygon fill="#8C8C94" points="47 40 47 52 5 45 5 34"/>
        <polygon fill="#BCBCBC" points="74 7 73.894 18.935 46.88 52 47 40.074"/>
        <text fill="#8C8C94" font-family="OpenSans-BoldItalic, Open Sans" font-size="12" font-style="italic" font-weight="bold" letter-spacing="-.343" transform="rotate(13 37.5 22)">
          <tspan x="20.999" y="26">G1061</tspan>
        </text>
      </g>
      <g transform="translate(173 70)">
        <polygon fill="#ECECEC" points="28.478 2 72 2 50.522 38 7 38" transform="rotate(8 39.5 20)"/>
        <polygon fill="#8C8C94" points="47 40 47 52 5 45 5 34"/>
        <polygon fill="#BCBCBC" points="74 7 73.894 18.935 46.88 52 47 40.074"/>
        <text fill="#8C8C94" font-family="OpenSans-BoldItalic, Open Sans" font-size="12" font-style="italic" font-weight="bold" letter-spacing="-.343" transform="rotate(13 37.5 22)">
          <tspan x="20.999" y="26">G1059</tspan>
        </text>
      </g>
      <g transform="translate(144 105)">
        <polygon fill="#ECECEC" points="28.478 2 72 2 50.522 38 7 38" transform="rotate(8 39.5 20)"/>
        <polygon fill="#8C8C94" points="47 40 47 52 5 45 5 34"/>
        <polygon fill="#BCBCBC" points="74 7 73.894 18.935 46.88 52 47 40.074"/>
        <text fill="#8C8C94" font-family="OpenSans-BoldItalic, Open Sans" font-size="12" font-style="italic" font-weight="bold" letter-spacing="-.343" transform="rotate(13 37.5 22)">
          <tspan x="20.999" y="26">G1057</tspan>
        </text>
      </g>
      <g transform="translate(115 140)">
        <polygon fill="#ECECEC" points="28.478 2 72 2 50.522 38 7 38" transform="rotate(8 39.5 20)"/>
        <polygon fill="#8C8C94" points="47 40 47 52 5 45 5 34"/>
        <polygon fill="#BCBCBC" points="74 7 73.894 18.935 46.88 52 47 40.074"/>
        <text fill="#8C8C94" font-family="OpenSans-BoldItalic, Open Sans" font-size="12" font-style="italic" font-weight="bold" letter-spacing="-.343" transform="rotate(13 37.5 22)">
          <tspan x="20.999" y="26">G1055</tspan>
        </text>
      </g>
      <g transform="translate(87 175)">
        <polygon fill="#ECECEC" points="28.478 2 72 2 50.522 38 7 38" transform="rotate(8 39.5 20)"/>
        <polygon fill="#8C8C94" points="47 40 47 52 5 45 5 34"/>
        <polygon fill="#BCBCBC" points="74 7 73.894 18.935 46.88 52 47 40.074"/>
        <text fill="#8C8C94" font-family="OpenSans-BoldItalic, Open Sans" font-size="12" font-style="italic" font-weight="bold" letter-spacing="-.343" transform="rotate(13 37.5 22)">
          <tspan x="20.999" y="26">G1053</tspan>
        </text>
      </g>
      <g transform="translate(58 210)">
        <polygon fill="#ECECEC" points="28.478 2 72 2 50.522 38 7 38" transform="rotate(8 39.5 20)"/>
        <polygon fill="#8C8C94" points="47 40 47 52 5 45 5 34"/>
        <polygon fill="#BCBCBC" points="74 7 73.894 18.935 46.88 52 47 40.074"/>
        <text fill="#8C8C94" font-family="OpenSans-BoldItalic, Open Sans" font-size="12" font-style="italic" font-weight="bold" letter-spacing="-.343" transform="rotate(13 37.5 22)">
          <tspan x="20.999" y="26">G1051</tspan>
        </text>
      </g>
      <g transform="translate(29 245)">
        <polygon fill="#ECECEC" points="28.478 2 72 2 50.522 38 7 38" transform="rotate(8 39.5 20)"/>
        <polygon fill="#8C8C94" points="47 40 47 52 5 45 5 34"/>
        <polygon fill="#BCBCBC" points="74 7 73.894 18.935 46.88 52 47 40.074"/>
        <text fill="#8C8C94" font-family="OpenSans-BoldItalic, Open Sans" font-size="12" font-style="italic" font-weight="bold" letter-spacing="-.343" transform="rotate(13 37.5 22)">
          <tspan x="20.999" y="26">G1049</tspan>
        </text>
      </g>
      <g transform="translate(0 280)">
        <polygon fill="#1456A0" points="28.667 2.348 72.189 2.348 50.711 38.348 7.189 38.348" transform="rotate(8 39.689 20.348)"/>
        <polygon fill="#0B3F70" points="47.189 39.348 47.189 51.348 5.189 44.348 5.189 33.348"/>
        <polygon fill="#0B3F70" points="74.189 6.348 74.083 18.283 47.068 51.348 47.189 39.422"/>
        <text fill="#FFF" font-family="OpenSans-BoldItalic, Open Sans" font-size="12" font-style="italic" font-weight="bold" letter-spacing="-.343" transform="rotate(13 37.332 22.14)">
          <tspan x="20.83" y="26.139">G1047</tspan>
        </text>
      </g>
    </g>
    <g transform="translate(255 54)">
      <g transform="translate(230)">
        <polygon fill="#ECECEC" points="28.478 2 72 2 50.522 38 7 38" transform="rotate(8 39.5 20)"/>
        <polygon fill="#8C8C94" points="47 40 47 52 5 45 5 34"/>
        <polygon fill="#BCBCBC" points="74 7 73.894 18.935 46.88 52 47 40.074"/>
        <text fill="#8C8C94" font-family="OpenSans-BoldItalic, Open Sans" font-size="12" font-style="italic" font-weight="bold" letter-spacing="-.343" transform="rotate(13 37.5 22)">
          <tspan x="20.999" y="26">G1162</tspan>
        </text>
      </g>
      <g transform="translate(202 35)">
        <polygon fill="#ECECEC" points="28.478 2 72 2 50.522 38 7 38" transform="rotate(8 39.5 20)"/>
        <polygon fill="#8C8C94" points="47 40 47 52 5 45 5 34"/>
        <polygon fill="#BCBCBC" points="74 7 73.894 18.935 46.88 52 47 40.074"/>
        <text fill="#8C8C94" font-family="OpenSans-BoldItalic, Open Sans" font-size="12" font-style="italic" font-weight="bold" letter-spacing="-.343" transform="rotate(13 37.5 22)">
          <tspan x="20.999" y="26">G1160</tspan>
        </text>
      </g>
      <g transform="translate(173 70)">
        <polygon fill="#ECECEC" points="28.478 2 72 2 50.522 38 7 38" transform="rotate(8 39.5 20)"/>
        <polygon fill="#8C8C94" points="47 40 47 52 5 45 5 34"/>
        <polygon fill="#BCBCBC" points="74 7 73.894 18.935 46.88 52 47 40.074"/>
        <text fill="#8C8C94" font-family="OpenSans-BoldItalic, Open Sans" font-size="12" font-style="italic" font-weight="bold" letter-spacing="-.343" transform="rotate(13 37.5 22)">
          <tspan x="20.999" y="26">G1158</tspan>
        </text>
      </g>
      <g transform="translate(144 105)">
        <polygon fill="#ECECEC" points="28.478 2 72 2 50.522 38 7 38" transform="rotate(8 39.5 20)"/>
        <polygon fill="#8C8C94" points="47 40 47 52 5 45 5 34"/>
        <polygon fill="#BCBCBC" points="74 7 73.894 18.935 46.88 52 47 40.074"/>
        <text fill="#8C8C94" font-family="OpenSans-BoldItalic, Open Sans" font-size="12" font-style="italic" font-weight="bold" letter-spacing="-.343" transform="rotate(13 37.5 22)">
          <tspan x="20.999" y="26">G1156</tspan>
        </text>
      </g>
      <g transform="translate(115 140)">
        <polygon fill="#ECECEC" points="28.478 2 72 2 50.522 38 7 38" transform="rotate(8 39.5 20)"/>
        <polygon fill="#8C8C94" points="47 40 47 52 5 45 5 34"/>
        <polygon fill="#BCBCBC" points="74 7 73.894 18.935 46.88 52 47 40.074"/>
        <text fill="#8C8C94" font-family="OpenSans-BoldItalic, Open Sans" font-size="12" font-style="italic" font-weight="bold" letter-spacing="-.343" transform="rotate(13 37.5 22)">
          <tspan x="20.999" y="26">G1154</tspan>
        </text>
      </g>
      <g transform="translate(87 175)">
        <polygon fill="#ECECEC" points="28.478 2 72 2 50.522 38 7 38" transform="rotate(8 39.5 20)"/>
        <polygon fill="#8C8C94" points="47 40 47 52 5 45 5 34"/>
        <polygon fill="#BCBCBC" points="74 7 73.894 18.935 46.88 52 47 40.074"/>
        <text fill="#8C8C94" font-family="OpenSans-BoldItalic, Open Sans" font-size="12" font-style="italic" font-weight="bold" letter-spacing="-.343" transform="rotate(13 37.5 22)">
          <tspan x="20.999" y="26">G1152</tspan>
        </text>
      </g>
      <g transform="translate(58 210)">
        <polygon fill="#ECECEC" points="28.478 2 72 2 50.522 38 7 38" transform="rotate(8 39.5 20)"/>
        <polygon fill="#8C8C94" points="47 40 47 52 5 45 5 34"/>
        <polygon fill="#BCBCBC" points="74 7 73.894 18.935 46.88 52 47 40.074"/>
        <text fill="#8C8C94" font-family="OpenSans-BoldItalic, Open Sans" font-size="12" font-style="italic" font-weight="bold" letter-spacing="-.343" transform="rotate(13 37.5 22)">
          <tspan x="24.967" y="26">1150</tspan>
        </text>
      </g>
      <g transform="translate(29 245)">
        <polygon fill="#ECECEC" points="28.478 2 72 2 50.522 38 7 38" transform="rotate(8 39.5 20)"/>
        <polygon fill="#8C8C94" points="47 40 47 52 5 45 5 34"/>
        <polygon fill="#BCBCBC" points="74 7 73.894 18.935 46.88 52 47 40.074"/>
        <text fill="#8C8C94" font-family="OpenSans-BoldItalic, Open Sans" font-size="12" font-style="italic" font-weight="bold" letter-spacing="-.343" transform="rotate(13 37.5 22)">
          <tspan x="20.999" y="26">G1148</tspan>
        </text>
      </g>
      <g transform="translate(0 280)">
        <polygon fill="#1456A0" points="28.667 2.348 72.189 2.348 50.711 38.348 7.189 38.348" transform="rotate(8 39.689 20.348)"/>
        <polygon fill="#0B3F70" points="47.189 39.348 47.189 51.348 5.189 44.348 5.189 33.348"/>
        <polygon fill="#0B3F70" points="74.189 6.348 74.083 18.283 47.068 51.348 47.189 39.422"/>
        <text fill="#FFF" font-family="OpenSans-BoldItalic, Open Sans" font-size="12" font-style="italic" font-weight="bold" letter-spacing="-.343" transform="rotate(13 37.332 22.14)">
          <tspan x="20.83" y="26.139">G1146</tspan>
        </text>
      </g>
    </g>
  </g>
</svg>
