<svg xmlns="http://www.w3.org/2000/svg" width="555" height="385" viewBox="0 0 555 385">
  <g fill="none" fill-rule="evenodd" transform="translate(-5 -1)">
    <g transform="translate(172)">
      <polygon fill="#1456A0" points="28.667 2.348 72.189 2.348 50.711 38.348 7.189 38.348" transform="rotate(8 39.689 20.348)"/>
      <polygon fill="#0B3F70" points="47.189 39.348 47.189 51.348 5.189 44.348 5.189 33.348"/>
      <polygon fill="#0B3F70" points="74.189 6.348 74.083 18.283 47.068 51.348 47.189 39.422"/>
      <text fill="#FFF" font-family="OpenSans-BoldItalic, Open Sans" font-size="12" font-style="italic" font-weight="bold" letter-spacing="-.343" transform="rotate(13 37.332 22.14)">
        <tspan x="23.964" y="26.139">G007</tspan>
      </text>
    </g>
    <g transform="translate(144 35)">
      <polygon fill="#1456A0" points="28.667 2.348 72.189 2.348 50.711 38.348 7.189 38.348" transform="rotate(8 39.689 20.348)"/>
      <polygon fill="#0B3F70" points="47.189 39.348 47.189 51.348 5.189 44.348 5.189 33.348"/>
      <polygon fill="#0B3F70" points="74.189 6.348 74.083 18.283 47.068 51.348 47.189 39.422"/>
      <text fill="#FFF" font-family="OpenSans-BoldItalic, Open Sans" font-size="12" font-style="italic" font-weight="bold" letter-spacing="-.343" transform="rotate(13 37.332 22.14)">
        <tspan x="23.964" y="26.139">G006</tspan>
      </text>
    </g>
    <g transform="translate(115 70)">
      <polygon fill="#1456A0" points="28.667 2.348 72.189 2.348 50.711 38.348 7.189 38.348" transform="rotate(8 39.689 20.348)"/>
      <polygon fill="#0B3F70" points="47.189 39.348 47.189 51.348 5.189 44.348 5.189 33.348"/>
      <polygon fill="#0B3F70" points="74.189 6.348 74.083 18.283 47.068 51.348 47.189 39.422"/>
      <text fill="#FFF" font-family="OpenSans-BoldItalic, Open Sans" font-size="12" font-style="italic" font-weight="bold" letter-spacing="-.343" transform="rotate(13 37.332 22.14)">
        <tspan x="23.964" y="26.139">G005</tspan>
      </text>
    </g>
    <g transform="translate(86 105)">
      <polygon fill="#1456A0" points="28.667 2.348 72.189 2.348 50.711 38.348 7.189 38.348" transform="rotate(8 39.689 20.348)"/>
      <polygon fill="#0B3F70" points="47.189 39.348 47.189 51.348 5.189 44.348 5.189 33.348"/>
      <polygon fill="#0B3F70" points="74.189 6.348 74.083 18.283 47.068 51.348 47.189 39.422"/>
      <text fill="#FFF" font-family="OpenSans-BoldItalic, Open Sans" font-size="12" font-style="italic" font-weight="bold" letter-spacing="-.343" transform="rotate(13 37.332 22.14)">
        <tspan x="23.964" y="26.139">G004</tspan>
      </text>
    </g>
    <g transform="translate(57 140)">
      <polygon fill="#1456A0" points="28.667 2.348 72.189 2.348 50.711 38.348 7.189 38.348" transform="rotate(8 39.689 20.348)"/>
      <polygon fill="#0B3F70" points="47.189 39.348 47.189 51.348 5.189 44.348 5.189 33.348"/>
      <polygon fill="#0B3F70" points="74.189 6.348 74.083 18.283 47.068 51.348 47.189 39.422"/>
      <text fill="#FFF" font-family="OpenSans-BoldItalic, Open Sans" font-size="12" font-style="italic" font-weight="bold" letter-spacing="-.343" transform="rotate(13 37.332 22.14)">
        <tspan x="23.964" y="26.139">G003</tspan>
      </text>
    </g>
    <g transform="translate(29 175)">
      <polygon fill="#1456A0" points="28.667 2.348 72.189 2.348 50.711 38.348 7.189 38.348" transform="rotate(8 39.689 20.348)"/>
      <polygon fill="#0B3F70" points="47.189 39.348 47.189 51.348 5.189 44.348 5.189 33.348"/>
      <polygon fill="#0B3F70" points="74.189 6.348 74.083 18.283 47.068 51.348 47.189 39.422"/>
      <text fill="#FFF" font-family="OpenSans-BoldItalic, Open Sans" font-size="12" font-style="italic" font-weight="bold" letter-spacing="-.343" transform="rotate(13 37.332 22.14)">
        <tspan x="23.964" y="26.139">G002</tspan>
      </text>
    </g>
    <g transform="translate(0 210)">
      <polygon fill="#1456A0" points="28.667 2.348 72.189 2.348 50.711 38.348 7.189 38.348" transform="rotate(8 39.689 20.348)"/>
      <polygon fill="#0B3F70" points="47.189 39.348 47.189 51.348 5.189 44.348 5.189 33.348"/>
      <polygon fill="#0B3F70" points="74.189 6.348 74.083 18.283 47.068 51.348 47.189 39.422"/>
      <text fill="#FFF" font-family="OpenSans-BoldItalic, Open Sans" font-size="12" font-style="italic" font-weight="bold" letter-spacing="-.343" transform="rotate(13 37.332 22.14)">
        <tspan x="23.964" y="26.139">G001</tspan>
      </text>
    </g>
    <g transform="translate(45 7)">
      <g transform="translate(172)">
        <polygon fill="#ECECEC" points="28.478 2 72 2 50.522 38 7 38" transform="rotate(8 39.5 20)"/>
        <polygon fill="#8C8C94" points="47 40 47 52 5 45 5 34"/>
        <polygon fill="#BCBCBC" points="74 7 73.894 18.935 46.88 52 47 40.074"/>
        <text fill="#8C8C94" font-family="OpenSans-BoldItalic, Open Sans" font-size="12" font-style="italic" font-weight="bold" letter-spacing="-.343" transform="rotate(13 37.5 22)">
          <tspan x="24.132" y="26">G008</tspan>
        </text>
      </g>
      <g transform="translate(144 35)">
        <polygon fill="#ECECEC" points="28.478 2 72 2 50.522 38 7 38" transform="rotate(8 39.5 20)"/>
        <polygon fill="#8C8C94" points="47 40 47 52 5 45 5 34"/>
        <polygon fill="#BCBCBC" points="74 7 73.894 18.935 46.88 52 47 40.074"/>
        <text fill="#8C8C94" font-family="OpenSans-BoldItalic, Open Sans" font-size="12" font-style="italic" font-weight="bold" letter-spacing="-.343" transform="rotate(13 37.5 22)">
          <tspan x="24.132" y="26">G009</tspan>
        </text>
      </g>
      <g transform="translate(115 70)">
        <polygon fill="#ECECEC" points="28.478 2 72 2 50.522 38 7 38" transform="rotate(8 39.5 20)"/>
        <polygon fill="#8C8C94" points="47 40 47 52 5 45 5 34"/>
        <polygon fill="#BCBCBC" points="74 7 73.894 18.935 46.88 52 47 40.074"/>
        <text fill="#8C8C94" font-family="OpenSans-BoldItalic, Open Sans" font-size="12" font-style="italic" font-weight="bold" letter-spacing="-.343" transform="rotate(13 37.5 22)">
          <tspan x="24.132" y="26">G010</tspan>
        </text>
      </g>
      <g transform="translate(86 105)">
        <polygon fill="#ECECEC" points="28.478 2 72 2 50.522 38 7 38" transform="rotate(8 39.5 20)"/>
        <polygon fill="#8C8C94" points="47 40 47 52 5 45 5 34"/>
        <polygon fill="#BCBCBC" points="74 7 73.894 18.935 46.88 52 47 40.074"/>
        <text fill="#8C8C94" font-family="OpenSans-BoldItalic, Open Sans" font-size="12" font-style="italic" font-weight="bold" letter-spacing="-.343" transform="rotate(13 37.5 22)">
          <tspan x="24.132" y="26">G011</tspan>
        </text>
      </g>
      <g transform="translate(57 140)">
        <polygon fill="#ECECEC" points="28.478 2 72 2 50.522 38 7 38" transform="rotate(8 39.5 20)"/>
        <polygon fill="#8C8C94" points="47 40 47 52 5 45 5 34"/>
        <polygon fill="#BCBCBC" points="74 7 73.894 18.935 46.88 52 47 40.074"/>
        <text fill="#8C8C94" font-family="OpenSans-BoldItalic, Open Sans" font-size="12" font-style="italic" font-weight="bold" letter-spacing="-.343" transform="rotate(13 37.5 22)">
          <tspan x="24.132" y="26">G012</tspan>
        </text>
      </g>
      <g transform="translate(29 175)">
        <polygon fill="#ECECEC" points="28.478 2 72 2 50.522 38 7 38" transform="rotate(8 39.5 20)"/>
        <polygon fill="#8C8C94" points="47 40 47 52 5 45 5 34"/>
        <polygon fill="#BCBCBC" points="74 7 73.894 18.935 46.88 52 47 40.074"/>
        <text fill="#8C8C94" font-family="OpenSans-BoldItalic, Open Sans" font-size="12" font-style="italic" font-weight="bold" letter-spacing="-.343" transform="rotate(13 37.5 22)">
          <tspan x="24.132" y="26">G013</tspan>
        </text>
      </g>
      <g transform="translate(0 210)">
        <polygon fill="#ECECEC" points="28.478 2 72 2 50.522 38 7 38" transform="rotate(8 39.5 20)"/>
        <polygon fill="#8C8C94" points="47 40 47 52 5 45 5 34"/>
        <polygon fill="#BCBCBC" points="74 7 73.894 18.935 46.88 52 47 40.074"/>
        <text fill="#8C8C94" font-family="OpenSans-BoldItalic, Open Sans" font-size="12" font-style="italic" font-weight="bold" letter-spacing="-.343" transform="rotate(13 37.5 22)">
          <tspan x="24.132" y="26">G014</tspan>
        </text>
      </g>
    </g>
    <g transform="translate(75 26)">
      <g transform="translate(230)">
        <polygon fill="#ECECEC" points="28.478 2 72 2 50.522 38 7 38" transform="rotate(8 39.5 20)"/>
        <polygon fill="#8C8C94" points="47 40 47 52 5 45 5 34"/>
        <polygon fill="#BCBCBC" points="74 7 73.894 18.935 46.88 52 47 40.074"/>
        <text fill="#8C8C94" font-family="OpenSans-BoldItalic, Open Sans" font-size="12" font-style="italic" font-weight="bold" letter-spacing="-.343" transform="rotate(13 37.5 22)">
          <tspan x="24.132" y="26">G017</tspan>
        </text>
      </g>
      <g transform="translate(202 35)">
        <polygon fill="#ECECEC" points="28.478 2 72 2 50.522 38 7 38" transform="rotate(8 39.5 20)"/>
        <polygon fill="#8C8C94" points="47 40 47 52 5 45 5 34"/>
        <polygon fill="#BCBCBC" points="74 7 73.894 18.935 46.88 52 47 40.074"/>
        <text fill="#8C8C94" font-family="OpenSans-BoldItalic, Open Sans" font-size="12" font-style="italic" font-weight="bold" letter-spacing="-.343" transform="rotate(13 37.5 22)">
          <tspan x="24.132" y="26">G016</tspan>
        </text>
      </g>
      <g transform="translate(173 70)">
        <polygon fill="#ECECEC" points="28.478 2 72 2 50.522 38 7 38" transform="rotate(8 39.5 20)"/>
        <polygon fill="#8C8C94" points="47 40 47 52 5 45 5 34"/>
        <polygon fill="#BCBCBC" points="74 7 73.894 18.935 46.88 52 47 40.074"/>
        <text fill="#8C8C94" font-family="OpenSans-BoldItalic, Open Sans" font-size="12" font-style="italic" font-weight="bold" letter-spacing="-.343" transform="rotate(13 37.5 22)">
          <tspan x="24.132" y="26">G015</tspan>
        </text>
      </g>
      <g transform="translate(144 105)">
        <polygon fill="#ECECEC" points="28.478 2 72 2 50.522 38 7 38" transform="rotate(8 39.5 20)"/>
        <polygon fill="#8C8C94" points="47 40 47 52 5 45 5 34"/>
        <polygon fill="#BCBCBC" points="74 7 73.894 18.935 46.88 52 47 40.074"/>
        <text fill="#8C8C94" font-family="OpenSans-BoldItalic, Open Sans" font-size="12" font-style="italic" font-weight="bold" letter-spacing="-.343" transform="rotate(13 37.5 22)">
          <tspan x="24.132" y="26">G014</tspan>
        </text>
      </g>
      <g transform="translate(115 140)">
        <polygon fill="#ECECEC" points="28.478 2 72 2 50.522 38 7 38" transform="rotate(8 39.5 20)"/>
        <polygon fill="#8C8C94" points="47 40 47 52 5 45 5 34"/>
        <polygon fill="#BCBCBC" points="74 7 73.894 18.935 46.88 52 47 40.074"/>
        <text fill="#8C8C94" font-family="OpenSans-BoldItalic, Open Sans" font-size="12" font-style="italic" font-weight="bold" letter-spacing="-.343" transform="rotate(13 37.5 22)">
          <tspan x="24.132" y="26">G013</tspan>
        </text>
      </g>
      <g transform="translate(87 175)">
        <polygon fill="#ECECEC" points="28.478 2 72 2 50.522 38 7 38" transform="rotate(8 39.5 20)"/>
        <polygon fill="#8C8C94" points="47 40 47 52 5 45 5 34"/>
        <polygon fill="#BCBCBC" points="74 7 73.894 18.935 46.88 52 47 40.074"/>
        <text fill="#8C8C94" font-family="OpenSans-BoldItalic, Open Sans" font-size="12" font-style="italic" font-weight="bold" letter-spacing="-.343" transform="rotate(13 37.5 22)">
          <tspan x="24.132" y="26">G012</tspan>
        </text>
      </g>
      <g transform="translate(58 210)">
        <polygon fill="#ECECEC" points="28.478 2 72 2 50.522 38 7 38" transform="rotate(8 39.5 20)"/>
        <polygon fill="#8C8C94" points="47 40 47 52 5 45 5 34"/>
        <polygon fill="#BCBCBC" points="74 7 73.894 18.935 46.88 52 47 40.074"/>
        <text fill="#8C8C94" font-family="OpenSans-BoldItalic, Open Sans" font-size="12" font-style="italic" font-weight="bold" letter-spacing="-.343" transform="rotate(13 37.5 22)">
          <tspan x="24.132" y="26">G011</tspan>
        </text>
      </g>
      <g transform="translate(29 245)">
        <polygon fill="#ECECEC" points="28.478 2 72 2 50.522 38 7 38" transform="rotate(8 39.5 20)"/>
        <polygon fill="#8C8C94" points="47 40 47 52 5 45 5 34"/>
        <polygon fill="#BCBCBC" points="74 7 73.894 18.935 46.88 52 47 40.074"/>
        <text fill="#8C8C94" font-family="OpenSans-BoldItalic, Open Sans" font-size="12" font-style="italic" font-weight="bold" letter-spacing="-.343" transform="rotate(13 37.5 22)">
          <tspan x="24.132" y="26">G010</tspan>
        </text>
      </g>
      <g transform="translate(0 280)">
        <polygon fill="#1456A0" points="28.667 2.348 72.189 2.348 50.711 38.348 7.189 38.348" transform="rotate(8 39.689 20.348)"/>
        <polygon fill="#0B3F70" points="47.189 39.348 47.189 51.348 5.189 44.348 5.189 33.348"/>
        <polygon fill="#0B3F70" points="74.189 6.348 74.083 18.283 47.068 51.348 47.189 39.422"/>
        <text fill="#FFF" font-family="OpenSans-BoldItalic, Open Sans" font-size="12" font-style="italic" font-weight="bold" letter-spacing="-.343" transform="rotate(13 37.332 22.14)">
          <tspan x="23.964" y="26.139">G009</tspan>
        </text>
      </g>
    </g>
    <g transform="translate(120 33)">
      <g transform="translate(230)">
        <polygon fill="#ECECEC" points="28.478 2 72 2 50.522 38 7 38" transform="rotate(8 39.5 20)"/>
        <polygon fill="#8C8C94" points="47 40 47 52 5 45 5 34"/>
        <polygon fill="#BCBCBC" points="74 7 73.894 18.935 46.88 52 47 40.074"/>
        <text fill="#8C8C94" font-family="OpenSans-BoldItalic, Open Sans" font-size="12" font-style="italic" font-weight="bold" letter-spacing="-.343" transform="rotate(13 37.5 22)">
          <tspan x="24.132" y="26">G018</tspan>
        </text>
      </g>
      <g transform="translate(202 35)">
        <polygon fill="#ECECEC" points="28.478 2 72 2 50.522 38 7 38" transform="rotate(8 39.5 20)"/>
        <polygon fill="#8C8C94" points="47 40 47 52 5 45 5 34"/>
        <polygon fill="#BCBCBC" points="74 7 73.894 18.935 46.88 52 47 40.074"/>
        <text fill="#8C8C94" font-family="OpenSans-BoldItalic, Open Sans" font-size="12" font-style="italic" font-weight="bold" letter-spacing="-.343" transform="rotate(13 37.5 22)">
          <tspan x="24.132" y="26">G019</tspan>
        </text>
      </g>
      <g transform="translate(173 70)">
        <polygon fill="#ECECEC" points="28.478 2 72 2 50.522 38 7 38" transform="rotate(8 39.5 20)"/>
        <polygon fill="#8C8C94" points="47 40 47 52 5 45 5 34"/>
        <polygon fill="#BCBCBC" points="74 7 73.894 18.935 46.88 52 47 40.074"/>
        <text fill="#8C8C94" font-family="OpenSans-BoldItalic, Open Sans" font-size="12" font-style="italic" font-weight="bold" letter-spacing="-.343" transform="rotate(13 37.5 22)">
          <tspan x="24.132" y="26">G020</tspan>
        </text>
      </g>
      <g transform="translate(144 105)">
        <polygon fill="#ECECEC" points="28.478 2 72 2 50.522 38 7 38" transform="rotate(8 39.5 20)"/>
        <polygon fill="#8C8C94" points="47 40 47 52 5 45 5 34"/>
        <polygon fill="#BCBCBC" points="74 7 73.894 18.935 46.88 52 47 40.074"/>
        <text fill="#8C8C94" font-family="OpenSans-BoldItalic, Open Sans" font-size="12" font-style="italic" font-weight="bold" letter-spacing="-.343" transform="rotate(13 37.5 22)">
          <tspan x="24.132" y="26">G021</tspan>
        </text>
      </g>
      <g transform="translate(87 175)">
        <polygon fill="#ECECEC" points="28.478 2 72 2 50.522 38 7 38" transform="rotate(8 39.5 20)"/>
        <polygon fill="#8C8C94" points="47 40 47 52 5 45 5 34"/>
        <polygon fill="#BCBCBC" points="74 7 73.894 18.935 46.88 52 47 40.074"/>
        <text fill="#8C8C94" font-family="OpenSans-BoldItalic, Open Sans" font-size="12" font-style="italic" font-weight="bold" letter-spacing="-.343" transform="rotate(13 37.5 22)">
          <tspan x="24.132" y="26">G022</tspan>
        </text>
      </g>
      <g transform="translate(58 210)">
        <polygon fill="#ECECEC" points="28.478 2 72 2 50.522 38 7 38" transform="rotate(8 39.5 20)"/>
        <polygon fill="#8C8C94" points="47 40 47 52 5 45 5 34"/>
        <polygon fill="#BCBCBC" points="74 7 73.894 18.935 46.88 52 47 40.074"/>
        <text fill="#8C8C94" font-family="OpenSans-BoldItalic, Open Sans" font-size="12" font-style="italic" font-weight="bold" letter-spacing="-.343" transform="rotate(13 37.5 22)">
          <tspan x="24.132" y="26">G023</tspan>
        </text>
      </g>
      <g transform="translate(29 245)">
        <polygon fill="#ECECEC" points="28.478 2 72 2 50.522 38 7 38" transform="rotate(8 39.5 20)"/>
        <polygon fill="#8C8C94" points="47 40 47 52 5 45 5 34"/>
        <polygon fill="#BCBCBC" points="74 7 73.894 18.935 46.88 52 47 40.074"/>
        <text fill="#8C8C94" font-family="OpenSans-BoldItalic, Open Sans" font-size="12" font-style="italic" font-weight="bold" letter-spacing="-.343" transform="rotate(13 37.5 22)">
          <tspan x="24.132" y="26">G024</tspan>
        </text>
      </g>
      <g transform="translate(0 280)">
        <polygon fill="#1456A0" points="28.667 2.348 72.189 2.348 50.711 38.348 7.189 38.348" transform="rotate(8 39.689 20.348)"/>
        <polygon fill="#0B3F70" points="47.189 39.348 47.189 51.348 5.189 44.348 5.189 33.348"/>
        <polygon fill="#0B3F70" points="74.189 6.348 74.083 18.283 47.068 51.348 47.189 39.422"/>
        <text fill="#FFF" font-family="OpenSans-BoldItalic, Open Sans" font-size="12" font-style="italic" font-weight="bold" letter-spacing="-.343" transform="rotate(13 37.332 22.14)">
          <tspan x="23.964" y="26.139">G025</tspan>
        </text>
      </g>
    </g>
    <g transform="translate(210 47)">
      <g transform="translate(230)">
        <polygon fill="#ECECEC" points="28.478 2 72 2 50.522 38 7 38" transform="rotate(8 39.5 20)"/>
        <polygon fill="#8C8C94" points="47 40 47 52 5 45 5 34"/>
        <polygon fill="#BCBCBC" points="74 7 73.894 18.935 46.88 52 47 40.074"/>
        <text fill="#8C8C94" font-family="OpenSans-BoldItalic, Open Sans" font-size="12" font-style="italic" font-weight="bold" letter-spacing="-.343" transform="rotate(13 37.5 22)">
          <tspan x="24.132" y="26">G034</tspan>
        </text>
      </g>
      <g transform="translate(202 35)">
        <polygon fill="#ECECEC" points="28.478 2 72 2 50.522 38 7 38" transform="rotate(8 39.5 20)"/>
        <polygon fill="#8C8C94" points="47 40 47 52 5 45 5 34"/>
        <polygon fill="#BCBCBC" points="74 7 73.894 18.935 46.88 52 47 40.074"/>
        <text fill="#8C8C94" font-family="OpenSans-BoldItalic, Open Sans" font-size="12" font-style="italic" font-weight="bold" letter-spacing="-.343" transform="rotate(13 37.5 22)">
          <tspan x="24.132" y="26">G033</tspan>
        </text>
      </g>
      <g transform="translate(173 70)">
        <polygon fill="#ECECEC" points="28.478 2 72 2 50.522 38 7 38" transform="rotate(8 39.5 20)"/>
        <polygon fill="#8C8C94" points="47 40 47 52 5 45 5 34"/>
        <polygon fill="#BCBCBC" points="74 7 73.894 18.935 46.88 52 47 40.074"/>
        <text fill="#8C8C94" font-family="OpenSans-BoldItalic, Open Sans" font-size="12" font-style="italic" font-weight="bold" letter-spacing="-.343" transform="rotate(13 37.5 22)">
          <tspan x="24.132" y="26">G032</tspan>
        </text>
      </g>
      <g transform="translate(144 105)">
        <polygon fill="#ECECEC" points="28.478 2 72 2 50.522 38 7 38" transform="rotate(8 39.5 20)"/>
        <polygon fill="#8C8C94" points="47 40 47 52 5 45 5 34"/>
        <polygon fill="#BCBCBC" points="74 7 73.894 18.935 46.88 52 47 40.074"/>
        <text fill="#8C8C94" font-family="OpenSans-BoldItalic, Open Sans" font-size="12" font-style="italic" font-weight="bold" letter-spacing="-.343" transform="rotate(13 37.5 22)">
          <tspan x="24.132" y="26">G031</tspan>
        </text>
      </g>
      <g transform="translate(115 140)">
        <polygon fill="#ECECEC" points="28.478 2 72 2 50.522 38 7 38" transform="rotate(8 39.5 20)"/>
        <polygon fill="#8C8C94" points="47 40 47 52 5 45 5 34"/>
        <polygon fill="#BCBCBC" points="74 7 73.894 18.935 46.88 52 47 40.074"/>
        <text fill="#8C8C94" font-family="OpenSans-BoldItalic, Open Sans" font-size="12" font-style="italic" font-weight="bold" letter-spacing="-.343" transform="rotate(13 37.5 22)">
          <tspan x="24.132" y="26">G030</tspan>
        </text>
      </g>
      <g transform="translate(87 175)">
        <polygon fill="#ECECEC" points="28.478 2 72 2 50.522 38 7 38" transform="rotate(8 39.5 20)"/>
        <polygon fill="#8C8C94" points="47 40 47 52 5 45 5 34"/>
        <polygon fill="#BCBCBC" points="74 7 73.894 18.935 46.88 52 47 40.074"/>
        <text fill="#8C8C94" font-family="OpenSans-BoldItalic, Open Sans" font-size="12" font-style="italic" font-weight="bold" letter-spacing="-.343" transform="rotate(13 37.5 22)">
          <tspan x="24.132" y="26">G029</tspan>
        </text>
      </g>
      <g transform="translate(58 210)">
        <polygon fill="#ECECEC" points="28.478 2 72 2 50.522 38 7 38" transform="rotate(8 39.5 20)"/>
        <polygon fill="#8C8C94" points="47 40 47 52 5 45 5 34"/>
        <polygon fill="#BCBCBC" points="74 7 73.894 18.935 46.88 52 47 40.074"/>
        <text fill="#8C8C94" font-family="OpenSans-BoldItalic, Open Sans" font-size="12" font-style="italic" font-weight="bold" letter-spacing="-.343" transform="rotate(13 37.5 22)">
          <tspan x="24.132" y="26">G028</tspan>
        </text>
      </g>
      <g transform="translate(29 245)">
        <polygon fill="#ECECEC" points="28.478 2 72 2 50.522 38 7 38" transform="rotate(8 39.5 20)"/>
        <polygon fill="#8C8C94" points="47 40 47 52 5 45 5 34"/>
        <polygon fill="#BCBCBC" points="74 7 73.894 18.935 46.88 52 47 40.074"/>
        <text fill="#8C8C94" font-family="OpenSans-BoldItalic, Open Sans" font-size="12" font-style="italic" font-weight="bold" letter-spacing="-.343" transform="rotate(13 37.5 22)">
          <tspan x="24.132" y="26">G027</tspan>
        </text>
      </g>
      <g transform="translate(0 280)">
        <polygon fill="#1456A0" points="28.667 2.348 72.189 2.348 50.711 38.348 7.189 38.348" transform="rotate(8 39.689 20.348)"/>
        <polygon fill="#0B3F70" points="47.189 39.348 47.189 51.348 5.189 44.348 5.189 33.348"/>
        <polygon fill="#0B3F70" points="74.189 6.348 74.083 18.283 47.068 51.348 47.189 39.422"/>
        <text fill="#FFF" font-family="OpenSans-BoldItalic, Open Sans" font-size="12" font-style="italic" font-weight="bold" letter-spacing="-.343" transform="rotate(13 37.332 22.14)">
          <tspan x="23.964" y="26.139">G026</tspan>
        </text>
      </g>
    </g>
    <g transform="translate(255 54)">
      <g transform="translate(230)">
        <polygon fill="#ECECEC" points="28.478 2 72 2 50.522 38 7 38" transform="rotate(8 39.5 20)"/>
        <polygon fill="#8C8C94" points="47 40 47 52 5 45 5 34"/>
        <polygon fill="#BCBCBC" points="74 7 73.894 18.935 46.88 52 47 40.074"/>
        <text fill="#8C8C94" font-family="OpenSans-BoldItalic, Open Sans" font-size="12" font-style="italic" font-weight="bold" letter-spacing="-.343" transform="rotate(13 37.5 22)">
          <tspan x="24.132" y="26">G035</tspan>
        </text>
      </g>
      <g transform="translate(202 35)">
        <polygon fill="#ECECEC" points="28.478 2 72 2 50.522 38 7 38" transform="rotate(8 39.5 20)"/>
        <polygon fill="#8C8C94" points="47 40 47 52 5 45 5 34"/>
        <polygon fill="#BCBCBC" points="74 7 73.894 18.935 46.88 52 47 40.074"/>
        <text fill="#8C8C94" font-family="OpenSans-BoldItalic, Open Sans" font-size="12" font-style="italic" font-weight="bold" letter-spacing="-.343" transform="rotate(13 37.5 22)">
          <tspan x="24.132" y="26">G036</tspan>
        </text>
      </g>
      <g transform="translate(173 70)">
        <polygon fill="#ECECEC" points="28.478 2 72 2 50.522 38 7 38" transform="rotate(8 39.5 20)"/>
        <polygon fill="#8C8C94" points="47 40 47 52 5 45 5 34"/>
        <polygon fill="#BCBCBC" points="74 7 73.894 18.935 46.88 52 47 40.074"/>
        <text fill="#8C8C94" font-family="OpenSans-BoldItalic, Open Sans" font-size="12" font-style="italic" font-weight="bold" letter-spacing="-.343" transform="rotate(13 37.5 22)">
          <tspan x="24.132" y="26">G037</tspan>
        </text>
      </g>
      <g transform="translate(144 105)">
        <polygon fill="#ECECEC" points="28.478 2 72 2 50.522 38 7 38" transform="rotate(8 39.5 20)"/>
        <polygon fill="#8C8C94" points="47 40 47 52 5 45 5 34"/>
        <polygon fill="#BCBCBC" points="74 7 73.894 18.935 46.88 52 47 40.074"/>
        <text fill="#8C8C94" font-family="OpenSans-BoldItalic, Open Sans" font-size="12" font-style="italic" font-weight="bold" letter-spacing="-.343" transform="rotate(13 37.5 22)">
          <tspan x="24.132" y="26">G038</tspan>
        </text>
      </g>
      <g transform="translate(115 140)">
        <polygon fill="#ECECEC" points="28.478 2 72 2 50.522 38 7 38" transform="rotate(8 39.5 20)"/>
        <polygon fill="#8C8C94" points="47 40 47 52 5 45 5 34"/>
        <polygon fill="#BCBCBC" points="74 7 73.894 18.935 46.88 52 47 40.074"/>
        <text fill="#8C8C94" font-family="OpenSans-BoldItalic, Open Sans" font-size="12" font-style="italic" font-weight="bold" letter-spacing="-.343" transform="rotate(13 37.5 22)">
          <tspan x="24.132" y="26">G039</tspan>
        </text>
      </g>
      <g transform="translate(87 175)">
        <polygon fill="#ECECEC" points="28.478 2 72 2 50.522 38 7 38" transform="rotate(8 39.5 20)"/>
        <polygon fill="#8C8C94" points="47 40 47 52 5 45 5 34"/>
        <polygon fill="#BCBCBC" points="74 7 73.894 18.935 46.88 52 47 40.074"/>
        <text fill="#8C8C94" font-family="OpenSans-BoldItalic, Open Sans" font-size="12" font-style="italic" font-weight="bold" letter-spacing="-.343" transform="rotate(13 37.5 22)">
          <tspan x="24.132" y="26">G040</tspan>
        </text>
      </g>
      <g transform="translate(58 210)">
        <polygon fill="#ECECEC" points="28.478 2 72 2 50.522 38 7 38" transform="rotate(8 39.5 20)"/>
        <polygon fill="#8C8C94" points="47 40 47 52 5 45 5 34"/>
        <polygon fill="#BCBCBC" points="74 7 73.894 18.935 46.88 52 47 40.074"/>
        <text fill="#8C8C94" font-family="OpenSans-BoldItalic, Open Sans" font-size="12" font-style="italic" font-weight="bold" letter-spacing="-.343" transform="rotate(13 37.5 22)">
          <tspan x="24.132" y="26">G041</tspan>
        </text>
      </g>
      <g transform="translate(29 245)">
        <polygon fill="#ECECEC" points="28.478 2 72 2 50.522 38 7 38" transform="rotate(8 39.5 20)"/>
        <polygon fill="#8C8C94" points="47 40 47 52 5 45 5 34"/>
        <polygon fill="#BCBCBC" points="74 7 73.894 18.935 46.88 52 47 40.074"/>
        <text fill="#8C8C94" font-family="OpenSans-BoldItalic, Open Sans" font-size="12" font-style="italic" font-weight="bold" letter-spacing="-.343" transform="rotate(13 37.5 22)">
          <tspan x="24.132" y="26">G042</tspan>
        </text>
      </g>
      <g transform="translate(0 280)">
        <polygon fill="#1456A0" points="28.667 2.348 72.189 2.348 50.711 38.348 7.189 38.348" transform="rotate(8 39.689 20.348)"/>
        <polygon fill="#0B3F70" points="47.189 39.348 47.189 51.348 5.189 44.348 5.189 33.348"/>
        <polygon fill="#0B3F70" points="74.189 6.348 74.083 18.283 47.068 51.348 47.189 39.422"/>
        <text fill="#FFF" font-family="OpenSans-BoldItalic, Open Sans" font-size="12" font-style="italic" font-weight="bold" letter-spacing="-.343" transform="rotate(13 37.332 22.14)">
          <tspan x="23.964" y="26.139">G043</tspan>
        </text>
      </g>
    </g>
  </g>
</svg>
